<svg width="164" height="170" viewBox="0 0 164 170" fill="none" xmlns="http://www.w3.org/2000/svg">
<path d="M135.866 81.3849L81.8606 68.4344V169.778L135.866 155.703V81.3849Z" fill="#4B4C57"/>
<path d="M27.8574 81.3849L81.8604 68.4344V169.778L27.8574 155.983V81.3849Z" fill="#4B4C57"/>
<path d="M81.4106 68.8824L109.853 45.3512L163.858 59.1461L135.416 81.8329L81.4106 68.8824Z" fill="#535461"/>
<path d="M0.598145 59.874L28.3072 81.8329L82.3102 68.8825L54.8846 45.7992L0.598145 59.874Z" fill="#535461"/>
<path d="M80.4428 57.0072H43.3078C42.7487 57.0072 42.2954 57.4585 42.2954 58.0151V91.9278C42.2954 92.4844 42.7487 92.9357 43.3078 92.9357H80.4428C81.0019 92.9357 81.4552 92.4844 81.4552 91.9278V58.0151C81.4552 57.4585 81.0019 57.0072 80.4428 57.0072Z" fill="#F5F5F5"/>
<path d="M50.9051 62.9247H46.3248C45.7657 62.9247 45.3125 63.3759 45.3125 63.9326V67.8343C45.3125 68.391 45.7657 68.8422 46.3248 68.8422H50.9051C51.4643 68.8422 51.9175 68.391 51.9175 67.8343V63.9326C51.9175 63.3759 51.4643 62.9247 50.9051 62.9247Z" fill="#D73B46"/>
<path d="M79.9729 62.9247H54.0794C53.98 62.9247 53.8994 63.0049 53.8994 63.1039V63.404C53.8994 63.503 53.98 63.5832 54.0794 63.5832H79.9729C80.0723 63.5832 80.1529 63.503 80.1529 63.404V63.1039C80.1529 63.0049 80.0723 62.9247 79.9729 62.9247Z" fill="#E0E0E0"/>
<path d="M79.9729 64.8956H54.0794C53.98 64.8956 53.8994 64.9759 53.8994 65.0748V65.3749C53.8994 65.4739 53.98 65.5541 54.0794 65.5541H79.9729C80.0723 65.5541 80.1529 65.4739 80.1529 65.3749V65.0748C80.1529 64.9759 80.0723 64.8956 79.9729 64.8956Z" fill="#E0E0E0"/>
<path d="M79.9729 72.0563H44.8333C44.7339 72.0563 44.6533 72.1365 44.6533 72.2355V72.5356C44.6533 72.6346 44.7339 72.7148 44.8333 72.7148H79.9729C80.0723 72.7148 80.1529 72.6346 80.1529 72.5356V72.2355C80.1529 72.1365 80.0723 72.0563 79.9729 72.0563Z" fill="#E0E0E0"/>
<path d="M79.9729 74.0295H44.8333C44.7339 74.0295 44.6533 74.1098 44.6533 74.2087V74.5089C44.6533 74.6078 44.7339 74.688 44.8333 74.688H79.9729C80.0723 74.688 80.1529 74.6078 80.1529 74.5089V74.2087C80.1529 74.1098 80.0723 74.0295 79.9729 74.0295Z" fill="#E0E0E0"/>
<path d="M79.9729 76.6591H44.8333C44.7339 76.6591 44.6533 76.7393 44.6533 76.8382V77.1384C44.6533 77.2373 44.7339 77.3176 44.8333 77.3176H79.9729C80.0723 77.3176 80.1529 77.2373 80.1529 77.1384V76.8382C80.1529 76.7393 80.0723 76.6591 79.9729 76.6591Z" fill="#E0E0E0"/>
<path d="M64.9475 78.6323H44.8333C44.7339 78.6323 44.6533 78.7125 44.6533 78.8115V79.1116C44.6533 79.2106 44.7339 79.2908 44.8333 79.2908H64.9475C65.0469 79.2908 65.1274 79.2106 65.1274 79.1116V78.8115C65.1274 78.7125 65.0469 78.6323 64.9475 78.6323Z" fill="#E0E0E0"/>
<path d="M79.9729 81.2551H44.8333C44.7339 81.2551 44.6533 81.3353 44.6533 81.4343V81.7344C44.6533 81.8334 44.7339 81.9136 44.8333 81.9136H79.9729C80.0723 81.9136 80.1529 81.8334 80.1529 81.7344V81.4343C80.1529 81.3353 80.0723 81.2551 79.9729 81.2551Z" fill="#E0E0E0"/>
<path d="M79.9729 83.2284H44.8333C44.7339 83.2284 44.6533 83.3086 44.6533 83.4076V83.7077C44.6533 83.8067 44.7339 83.8869 44.8333 83.8869H79.9729C80.0723 83.8869 80.1529 83.8067 80.1529 83.7077V83.4076C80.1529 83.3086 80.0723 83.2284 79.9729 83.2284Z" fill="#E0E0E0"/>
<path d="M79.9729 85.8579H44.8333C44.7339 85.8579 44.6533 85.9381 44.6533 86.0371V86.3372C44.6533 86.4362 44.7339 86.5164 44.8333 86.5164H79.9729C80.0723 86.5164 80.1529 86.4362 80.1529 86.3372V86.0371C80.1529 85.9381 80.0723 85.8579 79.9729 85.8579Z" fill="#E0E0E0"/>
<path d="M64.9475 87.8312H44.8333C44.7339 87.8312 44.6533 87.9114 44.6533 88.0104V88.3105C44.6533 88.4095 44.7339 88.4897 44.8333 88.4897H64.9475C65.0469 88.4897 65.1274 88.4095 65.1274 88.3105V88.0104C65.1274 87.9114 65.0469 87.8312 64.9475 87.8312Z" fill="#E0E0E0"/>
<path d="M86.4922 65.5161H49.3571C48.798 65.5161 48.3447 65.9674 48.3447 66.524V100.437C48.3447 100.993 48.798 101.445 49.3571 101.445H86.4922C87.0513 101.445 87.5045 100.993 87.5045 100.437V66.524C87.5045 65.9674 87.0513 65.5161 86.4922 65.5161Z" fill="white"/>
<path d="M56.9545 71.4336H52.3742C51.8151 71.4336 51.3618 71.8848 51.3618 72.4415V76.3432C51.3618 76.8999 51.8151 77.3511 52.3742 77.3511H56.9545C57.5136 77.3511 57.9668 76.8999 57.9668 76.3432V72.4415C57.9668 71.8848 57.5136 71.4336 56.9545 71.4336Z" fill="#D73B46"/>
<path d="M86.0223 71.4336H60.1287C60.0293 71.4336 59.9487 71.5138 59.9487 71.6128V71.9129C59.9487 72.0119 60.0293 72.0921 60.1287 72.0921H86.0223C86.1217 72.0921 86.2022 72.0119 86.2022 71.9129V71.6128C86.2022 71.5138 86.1217 71.4336 86.0223 71.4336Z" fill="#E0E0E0"/>
<path d="M86.0223 73.4045H60.1287C60.0293 73.4045 59.9487 73.4848 59.9487 73.5837V73.8839C59.9487 73.9828 60.0293 74.063 60.1287 74.063H86.0223C86.1217 74.063 86.2022 73.9828 86.2022 73.8839V73.5837C86.2022 73.4848 86.1217 73.4045 86.0223 73.4045Z" fill="#E0E0E0"/>
<path d="M86.0223 80.5652H50.8826C50.7832 80.5652 50.7026 80.6454 50.7026 80.7444V81.0445C50.7026 81.1435 50.7832 81.2237 50.8826 81.2237H86.0223C86.1216 81.2237 86.2022 81.1435 86.2022 81.0445V80.7444C86.2022 80.6454 86.1216 80.5652 86.0223 80.5652Z" fill="#E0E0E0"/>
<path d="M86.0223 82.5385H50.8826C50.7832 82.5385 50.7026 82.6187 50.7026 82.7176V83.0178C50.7026 83.1167 50.7832 83.197 50.8826 83.197H86.0223C86.1216 83.197 86.2022 83.1167 86.2022 83.0178V82.7176C86.2022 82.6187 86.1216 82.5385 86.0223 82.5385Z" fill="#E0E0E0"/>
<path d="M86.0223 85.168H50.8826C50.7832 85.168 50.7026 85.2482 50.7026 85.3471V85.6473C50.7026 85.7462 50.7832 85.8265 50.8826 85.8265H86.0223C86.1216 85.8265 86.2022 85.7462 86.2022 85.6473V85.3471C86.2022 85.2482 86.1216 85.168 86.0223 85.168Z" fill="#E0E0E0"/>
<path d="M70.9968 87.1412H50.8826C50.7832 87.1412 50.7026 87.2215 50.7026 87.3204V87.6206C50.7026 87.7195 50.7832 87.7997 50.8826 87.7997H70.9968C71.0962 87.7997 71.1768 87.7195 71.1768 87.6206V87.3204C71.1768 87.2215 71.0962 87.1412 70.9968 87.1412Z" fill="#E0E0E0"/>
<path d="M86.0223 89.764H50.8826C50.7832 89.764 50.7026 89.8443 50.7026 89.9432V90.2434C50.7026 90.3423 50.7832 90.4225 50.8826 90.4225H86.0223C86.1216 90.4225 86.2022 90.3423 86.2022 90.2434V89.9432C86.2022 89.8443 86.1216 89.764 86.0223 89.764Z" fill="#E0E0E0"/>
<path d="M86.0223 91.7373H50.8826C50.7832 91.7373 50.7026 91.8175 50.7026 91.9165V92.2166C50.7026 92.3156 50.7832 92.3958 50.8826 92.3958H86.0223C86.1216 92.3958 86.2022 92.3156 86.2022 92.2166V91.9165C86.2022 91.8175 86.1216 91.7373 86.0223 91.7373Z" fill="#E0E0E0"/>
<path d="M86.0223 94.3668H50.8826C50.7832 94.3668 50.7026 94.447 50.7026 94.546V94.8461C50.7026 94.9451 50.7832 95.0253 50.8826 95.0253H86.0223C86.1216 95.0253 86.2022 94.9451 86.2022 94.8461V94.546C86.2022 94.447 86.1216 94.3668 86.0223 94.3668Z" fill="#E0E0E0"/>
<path d="M70.9968 96.3401H50.8826C50.7832 96.3401 50.7026 96.4203 50.7026 96.5193V96.8194C50.7026 96.9184 50.7832 96.9986 50.8826 96.9986H70.9968C71.0962 96.9986 71.1768 96.9184 71.1768 96.8194V96.5193C71.1768 96.4203 71.0962 96.3401 70.9968 96.3401Z" fill="#E0E0E0"/>
<path d="M105.16 70.6497H72.2341V109.725H105.16V70.6497Z" fill="white"/>
<path d="M92.6384 77.0262H84.7556V81.4409H92.6384V77.0262Z" fill="#D73B46"/>
<path d="M87.0549 76.1259V77.2704H87.4644V76.4529H89.9277V77.2704H90.3394V76.1259H87.0549Z" fill="#D73B46"/>
<path d="M100.314 87.793H77.1609V88.774H100.314V87.793Z" fill="#E0E0E0"/>
<path d="M100.314 94.2502H77.1609V95.2313H100.314V94.2502Z" fill="#E0E0E0"/>
<path d="M100.314 95.9683H77.1609V96.9493H100.314V95.9683Z" fill="#E0E0E0"/>
<path d="M86.9312 92.5347H77.1609V93.5157H86.9312V92.5347Z" fill="#E0E0E0"/>
<path opacity="0.6" d="M100.314 92.5347H93.0073V93.5157H100.314V92.5347Z" fill="#3AD29F"/>
<path d="M92.5957 99.9729H85.2888V100.954H92.5957V99.9729Z" fill="#D73B46"/>
<path d="M27.8574 81.385V155.983L81.8604 169.778L82.5893 95.7421L27.8574 81.385Z" fill="#535461"/>
<path d="M135.866 155.703L81.8606 169.778V95.7421L135.866 81.385V155.703Z" fill="#4D4E5A"/>
<path opacity="0.07" d="M114.377 130.931V155.421L135.866 149.51V125.018L114.377 130.931Z" fill="black"/>
<path d="M123.281 75.5347H107.853V90.0866H123.281V75.5347Z" fill="#F5F5F5"/>
<path opacity="0.6" d="M118.564 78.209H112.568V81.5664H118.564V78.209Z" fill="#D73B46"/>
<path opacity="0.6" d="M114.319 77.5259V78.3972H114.632V77.7745H116.506V78.3972H116.816V77.5259H114.319Z" fill="#D73B46"/>
<path opacity="0.6" d="M118.471 84.1802H112.913V84.926H118.471V84.1802Z" fill="#D73B46"/>
<path d="M120.314 85.5487H110.821V86.2946H120.314V85.5487Z" fill="#BDBDBD"/>
<path d="M108.013 0.374023H92.5845V14.9259H108.013V0.374023Z" fill="#F5F5F5"/>
<path opacity="0.6" d="M103.295 3.04614H97.2998V6.40359H103.295V3.04614Z" fill="#D73B46"/>
<path opacity="0.6" d="M99.0498 2.36304V3.23432H99.3625V2.61165H101.236V3.23432H101.547V2.36304H99.0498Z" fill="#D73B46"/>
<path opacity="0.6" d="M103.203 9.01733H97.644V9.76318H103.203V9.01733Z" fill="#D73B46"/>
<path d="M105.045 10.3859H95.5518V11.1317H105.045V10.3859Z" fill="#BDBDBD"/>
<path d="M90.2021 28.9089H70.0857V45.1855H90.2021V28.9089Z" fill="#F2F2F2"/>
<path d="M90.2021 28.9089H70.0857V32.5396H90.2021V28.9089Z" fill="#D73B46"/>
<path opacity="0.1" d="M90.2021 28.9089H70.0857V32.5396H90.2021V28.9089Z" fill="black"/>
<path d="M88.6004 33.8566H71.6897V35.9709H88.6004V33.8566Z" fill="#E0E0E0"/>
<path d="M84.0313 37.5657H71.6897V38.2846H84.0313V37.5657Z" fill="#E0E0E0"/>
<path d="M79.703 38.802H71.6897V39.521H79.703V38.802Z" fill="#E0E0E0"/>
<path d="M82.2676 40.0385H71.6897V40.7574H82.2676V40.0385Z" fill="#E0E0E0"/>
<path d="M84.0313 41.277H71.6897V41.996H84.0313V41.277Z" fill="#E0E0E0"/>
<path d="M75.8178 42.5133H71.6897V43.2323H75.8178V42.5133Z" fill="#E0E0E0"/>
<path d="M125.416 41.6555H100.483V61.8315H125.416V41.6555Z" fill="white"/>
<path d="M125.416 41.6555H100.483V46.1553H125.416V41.6555Z" fill="#D73B46"/>
<path d="M123.43 47.7881H102.47V50.4086H123.43V47.7881Z" fill="#F5F5F5"/>
<path d="M117.767 52.3864H102.47V53.2755H117.767V52.3864Z" fill="#E0E0E0"/>
<path d="M112.404 53.9207H102.47V54.8099H112.404V53.9207Z" fill="#E0E0E0"/>
<path d="M115.581 55.4526H102.47V56.3418H115.581V55.4526Z" fill="#E0E0E0"/>
<path d="M117.767 56.9869H102.47V57.8761H117.767V56.9869Z" fill="#E0E0E0"/>
<path d="M107.585 58.5189H102.47V59.4081H107.585V58.5189Z" fill="#E0E0E0"/>
<path d="M109.523 48.6772H103.563V49.4679H109.523V48.6772Z" fill="#69F0AE"/>
<path opacity="0.1" d="M27.1509 120.093L57.4043 127.693L81.7208 107.987V95.8831L27.7155 82.3705L27.1509 120.093Z" fill="black"/>
<path opacity="0.1" d="M136.291 120.093L106.038 127.693L81.7212 107.987V95.8831L135.726 82.3705L136.291 120.093Z" fill="black"/>
<path d="M27.8575 81.385L0.148438 104.186L54.1515 117.699L81.8605 95.7421L27.8575 81.385Z" fill="#535461"/>
<path d="M135.866 81.385L163.858 104.186L110.136 117.699L81.8604 95.7421L135.866 81.385Z" fill="#535461"/>
</svg>
