<svg width="747" height="552" viewBox="0 0 747 552" fill="none" xmlns="http://www.w3.org/2000/svg">
<path d="M373.5 552C579.778 552 747 544.165 747 534.5C747 524.835 579.778 517 373.5 517C167.222 517 0 524.835 0 534.5C0 544.165 167.222 552 373.5 552Z" fill="#4E4D5B"/>
<path d="M194.41 495.97C187.15 482.53 195.41 466.07 204.85 454.09C214.29 442.11 225.85 429.65 225.6 414.38C225.24 392.44 201.96 379.49 183.36 367.86C169.558 359.229 156.826 348.994 145.43 337.37C140.86 332.7 136.43 327.72 133.77 321.76C129.93 313.18 130.03 303.43 130.28 294.03C131.08 262.697 132.627 231.423 134.92 200.21" stroke="#3F3D56" stroke-width="4" stroke-miterlimit="10"/>
<path d="M99.5501 198.5C99.824 192.776 101.531 187.212 104.516 182.32C107.5 177.427 111.666 173.363 116.63 170.5L124.29 185.65L124.06 167.31C131.019 165.259 138.45 165.474 145.279 167.921C152.108 170.369 157.983 174.924 162.055 180.929C166.126 186.933 168.184 194.076 167.932 201.327C167.679 208.577 165.129 215.559 160.649 221.266C156.169 226.972 149.991 231.107 143.008 233.073C136.025 235.04 128.597 234.736 121.798 232.206C114.999 229.676 109.18 225.05 105.181 218.997C101.182 212.944 99.2099 205.777 99.5501 198.53V198.5Z" fill="#57B793"/>
<path d="M160.57 430.06C164.01 436.764 169.568 442.145 176.381 445.366C183.193 448.586 190.878 449.467 198.243 447.871C205.607 446.274 212.238 442.291 217.106 436.538C221.973 430.786 224.805 423.587 225.16 416.06C225.399 411.328 224.639 406.599 222.93 402.18C220.432 395.699 216.02 390.131 210.281 386.217C204.542 382.303 197.749 380.228 190.802 380.269C183.856 380.309 177.087 382.462 171.394 386.442C165.7 390.422 161.353 396.04 158.93 402.55L180.3 419.93L156.79 414.46C156.78 419.888 158.077 425.239 160.57 430.06Z" fill="#57B793"/>
<path d="M177.46 363.64C185.85 364.023 194.087 361.309 200.605 356.012C207.122 350.715 211.464 343.207 212.805 334.916C214.145 326.626 212.389 318.132 207.873 311.051C203.356 303.971 196.393 298.799 188.31 296.52L188.49 310.61L180.79 295.28H180.7C171.634 294.857 162.77 298.053 156.06 304.165C149.35 310.276 145.343 318.803 144.92 327.87C144.497 336.936 147.693 345.799 153.805 352.51C159.917 359.22 168.444 363.227 177.51 363.65L177.46 363.64Z" fill="#57B793"/>
<path d="M94.4 308.37C99.6972 308.628 104.982 307.651 109.837 305.517C114.692 303.383 118.984 300.149 122.376 296.071C125.767 291.994 128.164 287.184 129.377 282.021C130.591 276.858 130.588 271.484 129.368 266.323C128.149 261.161 125.747 256.354 122.351 252.28C118.955 248.206 114.659 244.977 109.802 242.849C104.944 240.72 99.6584 239.749 94.3615 240.013C89.0646 240.277 83.9016 241.769 79.28 244.37L85.28 260.94L72.89 248.97C69.5778 251.984 66.8926 255.622 64.9879 259.675C63.0832 263.728 61.9965 268.116 61.79 272.59C61.6312 275.755 61.9241 278.927 62.66 282.01C64.3608 289.259 68.3806 295.756 74.1089 300.513C79.8373 305.271 86.9615 308.029 94.4 308.37V308.37Z" fill="#57B793"/>
<path opacity="0.1" d="M104.15 207.62C112.05 208.49 119.73 210.94 127.65 211.43C135.57 211.92 144.28 210.03 149.29 203.87C151.99 200.55 153.34 196.35 155.62 192.73C157.78 189.357 160.742 186.571 164.24 184.62C166.418 188.956 167.65 193.706 167.852 198.555C168.054 203.404 167.223 208.24 165.413 212.742C163.604 217.245 160.857 221.311 157.356 224.671C153.855 228.032 149.679 230.609 145.105 232.231C140.532 233.854 135.666 234.486 130.83 234.084C125.994 233.683 121.298 232.257 117.055 229.902C112.812 227.547 109.118 224.317 106.219 220.425C103.32 216.533 101.282 212.07 100.24 207.33C101.57 207.39 102.87 207.48 104.15 207.62Z" fill="black"/>
<path opacity="0.1" d="M94.3999 308.37C100.296 308.642 106.163 307.385 111.43 304.721C116.697 302.057 121.187 298.077 124.462 293.166C127.737 288.256 129.688 282.582 130.123 276.695C130.559 270.809 129.466 264.909 126.95 259.57C124.233 261.397 121.897 263.733 120.07 266.45C117.63 270.13 116.16 274.38 113.29 277.76C107.96 284.02 98.8599 286.07 90.5999 285.7C82.3399 285.33 74.3699 282.97 66.1499 282.22C65.0099 282.12 63.85 282.04 62.7 282.01C64.3989 289.253 68.4127 295.745 74.133 300.502C79.8534 305.259 86.9685 308.021 94.3999 308.37V308.37Z" fill="black"/>
<path opacity="0.1" d="M177.46 363.64C183.299 363.914 189.111 362.688 194.341 360.078C199.571 357.467 204.045 353.561 207.336 348.73C210.628 343.899 212.626 338.306 213.142 332.484C213.657 326.661 212.672 320.804 210.28 315.47C207.462 317.342 205.012 319.714 203.05 322.47C200.39 326.22 198.73 330.54 195.62 334C189.85 340.43 180.15 342.7 171.4 342.49C162.93 342.31 154.77 340.23 146.35 339.58C148.435 346.301 152.54 352.217 158.106 356.522C163.673 360.827 170.431 363.313 177.46 363.64V363.64Z" fill="black"/>
<path opacity="0.1" d="M160.57 430.06C164.01 436.764 169.568 442.145 176.381 445.365C183.193 448.586 190.878 449.467 198.243 447.871C205.607 446.274 212.238 442.291 217.106 436.538C221.973 430.786 224.805 423.587 225.16 416.06C225.399 411.328 224.639 406.599 222.93 402.18C220.115 404.029 217.588 406.283 215.43 408.87C212.18 412.87 210.03 417.33 206.27 421.03C199.27 427.89 187.98 430.73 177.93 431.03C172.129 431.05 166.332 430.726 160.57 430.06V430.06Z" fill="black"/>
<path d="M431.22 515.95L299.22 542.95L296.22 542.65L180.22 530.95V383.95L322.22 359.95L425.22 371.95L425.25 372.6L425.26 372.92L431.22 515.95Z" fill="#FDE600"/>
<path opacity="0.1" d="M431.22 515.95L299.22 542.95L296.22 542.65V391.95L425.25 372.6L431.22 515.95Z" fill="black"/>
<path opacity="0.05" d="M425.26 372.92L425.22 372.95L296.22 391.95L180.22 383.95L322.22 359.95L425.22 371.95L425.25 372.6L425.26 372.92Z" fill="black"/>
<path d="M576.22 521.95L444.22 548.95L441.22 548.65L325.22 536.95V389.95L467.22 365.95L570.22 377.95L570.25 378.6L570.26 378.92L576.22 521.95Z" fill="#4E4D5B"/>
<path opacity="0.1" d="M576.22 521.95L444.22 548.95L441.22 548.65V397.95L570.25 378.6L576.22 521.95Z" fill="black"/>
<path opacity="0.05" d="M570.26 378.92L570.22 378.95L441.22 397.95L325.22 389.95L467.22 365.95L570.22 377.95L570.25 378.6L570.26 378.92Z" fill="black"/>
<path d="M485.22 377.95L353.22 404.95L350.22 404.65L234.22 392.95V245.95L376.22 221.95L479.22 233.95L479.25 234.6L479.26 234.92L485.22 377.95Z" fill="white"/>
<path opacity="0.1" d="M485.22 377.95L353.22 404.95L350.22 404.65V253.95L479.25 234.6L485.22 377.95Z" fill="black"/>
<path opacity="0.05" d="M479.26 234.92L479.22 234.95L350.22 253.95L234.22 245.95L376.22 221.95L479.22 233.95L479.25 234.6L479.26 234.92Z" fill="black"/>
<path d="M560.22 384.11L491.33 398.21L489.76 398.05L429.22 391.94V315.22L503.33 302.69L557.09 308.96L557.11 309.3V309.46L560.22 384.11Z" fill="#4E4D5B"/>
<path opacity="0.1" d="M560.22 384.11L491.33 398.21L489.76 398.05V319.4L557.11 309.3L560.22 384.11Z" fill="black"/>
<path opacity="0.05" d="M557.11 309.46L557.09 309.48L489.76 319.4L429.22 315.22L503.33 302.69L557.09 308.96L557.11 309.3V309.46Z" fill="black"/>
<path d="M375.22 235.11L306.33 249.2L304.76 249.05L244.22 242.94V166.22L318.33 153.69L372.09 159.96L372.11 160.3V160.46L375.22 235.11Z" fill="#4E4D5B"/>
<path opacity="0.1" d="M375.22 235.11L306.33 249.2L304.76 249.05V170.4L372.11 160.3L375.22 235.11Z" fill="black"/>
<path opacity="0.05" d="M372.11 160.46L372.09 160.48L304.76 170.4L244.22 166.22L318.33 153.69L372.09 159.96L372.11 160.3V160.46Z" fill="black"/>
<path d="M496.22 232.11L427.33 246.2L425.76 246.05L365.22 239.94V163.22L439.33 150.69L493.09 156.96L493.11 157.3V157.46L496.22 232.11Z" fill="#FDE600"/>
<path opacity="0.1" d="M496.22 232.11L427.33 246.2L425.76 246.05V167.4L493.11 157.3L496.22 232.11Z" fill="black"/>
<path opacity="0.05" d="M493.11 157.46L493.09 157.48L425.76 167.4L365.22 163.22L439.33 150.69L493.09 156.96L493.11 157.3V157.46Z" fill="black"/>
<path d="M532.22 155.11L463.33 169.2L461.76 169.05L401.22 162.94V86.2199L475.33 73.6899L529.09 79.9599L529.11 80.2999V80.4599L532.22 155.11Z" fill="#4E4D5B"/>
<path opacity="0.1" d="M532.22 155.11L463.33 169.2L461.76 169.05V90.4L529.11 80.3L532.22 155.11Z" fill="black"/>
<path opacity="0.05" d="M529.11 80.4599L529.09 80.4799L461.76 90.3999L401.22 86.2199L475.33 73.6899L529.09 79.9599L529.11 80.2999V80.4599Z" fill="black"/>
<path d="M405.22 158.11L336.33 172.2L334.76 172.05L274.22 165.94V89.2199L348.33 76.6899L402.09 82.9599L402.11 83.2999V83.4599L405.22 158.11Z" fill="#FDE600"/>
<path opacity="0.1" d="M405.22 158.11L336.33 172.2L334.76 172.05V93.4L402.11 83.3L405.22 158.11Z" fill="black"/>
<path opacity="0.05" d="M402.11 83.4599L402.09 83.4799L334.76 93.3999L274.22 89.2199L348.33 76.6899L402.09 82.9599L402.11 83.2999V83.4599Z" fill="black"/>
<path d="M441.22 82.1099L372.33 96.2099L370.76 96.0499L310.22 89.9399V13.2199L384.33 0.689941L438.09 6.95995L438.11 7.29994V7.45995L441.22 82.1099Z" fill="#4E4D5B"/>
<path opacity="0.1" d="M441.22 82.11L372.33 96.2101L370.76 96.05V17.4L438.11 7.30005L441.22 82.11Z" fill="black"/>
<path opacity="0.05" d="M438.11 7.45995L438.09 7.47993L370.76 17.3999L310.22 13.2199L384.33 0.689941L438.09 6.95995L438.11 7.29994V7.45995Z" fill="black"/>
</svg>
