<svg width="145" height="145" viewBox="0 0 145 145" fill="none" xmlns="http://www.w3.org/2000/svg">
<path d="M42.7565 112.566H5.2671C3.87066 112.564 2.53185 111.994 1.54442 110.981C0.556987 109.967 0.00157203 108.593 0 107.16V49.3408C0.00157121 47.9076 0.556987 46.5336 1.54442 45.5201C2.53185 44.5067 3.87066 43.9367 5.2671 43.9351H42.7565C44.1529 43.9367 45.4917 44.5067 46.4791 45.5201C47.4665 46.5336 48.022 47.9076 48.0235 49.3408V107.16C48.022 108.593 47.4665 109.967 46.4791 110.981C45.4917 111.994 44.1529 112.564 42.7565 112.566V112.566ZM5.2671 44.571C4.03495 44.5725 2.85365 45.0754 1.98239 45.9696C1.11112 46.8638 0.621053 48.0762 0.619659 49.3408V107.16C0.621053 108.425 1.11112 109.637 1.98239 110.531C2.85365 111.425 4.03495 111.928 5.2671 111.93H42.7565C43.9886 111.928 45.1699 111.425 46.0411 110.531C46.9124 109.637 47.4025 108.425 47.4039 107.16V49.3408C47.4025 48.0762 46.9124 46.8638 46.0411 45.9696C45.1699 45.0754 43.9886 44.5725 42.7565 44.571H5.2671Z" fill="#3F3D56"/>
<path d="M37.0245 71.7319H10.9989C10.3007 71.7311 9.63128 71.4461 9.13757 70.9394C8.64385 70.4327 8.36614 69.7457 8.36536 69.0291V56.3098C8.36614 55.5932 8.64385 54.9062 9.13757 54.3995C9.63128 53.8928 10.3007 53.6077 10.9989 53.6069H37.0245C37.7228 53.6078 38.3921 53.8928 38.8858 54.3995C39.3796 54.9062 39.6573 55.5932 39.6581 56.3098V69.0291C39.6573 69.7457 39.3796 70.4327 38.8858 70.9394C38.3921 71.4461 37.7228 71.7311 37.0245 71.7319Z" fill="#D73B46"/>
<path d="M35.1656 83.6562H12.8579C12.2005 83.6562 11.5701 83.3882 11.1052 82.9111C10.6404 82.434 10.3793 81.787 10.3793 81.1123C10.3793 80.4377 10.6404 79.7906 11.1052 79.3136C11.5701 78.8365 12.2005 78.5685 12.8579 78.5685H35.1656C35.823 78.5685 36.4534 78.8365 36.9183 79.3136C37.3831 79.7906 37.6442 80.4377 37.6442 81.1123C37.6442 81.787 37.3831 82.434 36.9183 82.9111C36.4534 83.3882 35.823 83.6562 35.1656 83.6562Z" fill="#CCCCCC"/>
<path d="M35.1656 93.1956H12.8579C12.2005 93.1956 11.5701 92.9276 11.1052 92.4505C10.6404 91.9735 10.3793 91.3264 10.3793 90.6518C10.3793 89.9771 10.6404 89.3301 11.1052 88.853C11.5701 88.3759 12.2005 88.1079 12.8579 88.1079H35.1656C35.823 88.1079 36.4534 88.3759 36.9183 88.853C37.3831 89.3301 37.6442 89.9771 37.6442 90.6518C37.6442 91.3264 37.3831 91.9735 36.9183 92.4505C36.4534 92.9276 35.823 93.1956 35.1656 93.1956Z" fill="#CCCCCC"/>
<path d="M35.1656 102.735H12.8579C12.2005 102.735 11.5701 102.467 11.1052 101.99C10.6404 101.513 10.3793 100.866 10.3793 100.191C10.3793 99.5166 10.6404 98.8696 11.1052 98.3925C11.5701 97.9155 12.2005 97.6475 12.8579 97.6475H35.1656C35.823 97.6475 36.4534 97.9155 36.9183 98.3925C37.3831 98.8696 37.6442 99.5166 37.6442 100.191C37.6442 100.866 37.3831 101.513 36.9183 101.99C36.4534 102.467 35.823 102.735 35.1656 102.735Z" fill="#CCCCCC"/>
<path d="M44.9251 52.7851C48.8607 52.7851 52.0512 49.5107 52.0512 45.4716C52.0512 41.4324 48.8607 38.158 44.9251 38.158C40.9895 38.158 37.7991 41.4324 37.7991 45.4716C37.7991 49.5107 40.9895 52.7851 44.9251 52.7851Z" fill="#FFCA28"/>
<path d="M44.2189 48.2615C44.0586 48.2618 43.9025 48.2086 43.7742 48.1099L43.7663 48.1037L42.0916 46.7878C42.0136 46.727 41.9482 46.6509 41.8989 46.5641C41.8497 46.4772 41.8176 46.3812 41.8046 46.2816C41.7916 46.182 41.7978 46.0807 41.823 45.9836C41.8482 45.8865 41.8918 45.7954 41.9514 45.7156C42.011 45.6358 42.0853 45.5689 42.1701 45.5187C42.2549 45.4684 42.3486 45.4359 42.4457 45.4229C42.5428 45.4098 42.6414 45.4166 42.736 45.4428C42.8305 45.469 42.9191 45.5141 42.9966 45.5755L44.0813 46.4292L46.6447 42.9982C46.7041 42.9186 46.7783 42.8518 46.8629 42.8017C46.9475 42.7515 47.0409 42.7189 47.1377 42.7058C47.2346 42.6927 47.333 42.6993 47.4274 42.7252C47.5218 42.7511 47.6103 42.7958 47.6878 42.8569L47.6719 42.8791L47.6883 42.8572C47.8447 42.9806 47.947 43.1626 47.9728 43.3633C47.9986 43.564 47.9458 43.767 47.826 43.9278L44.8108 47.9635C44.7411 48.0564 44.6514 48.1317 44.5488 48.1834C44.4461 48.2351 44.3332 48.2618 44.2189 48.2615V48.2615Z" fill="white"/>
<path d="M134.156 145H96.6668C95.2703 144.998 93.9315 144.428 92.9441 143.415C91.9566 142.402 91.4012 141.028 91.3997 139.594V81.7751C91.4012 80.3419 91.9566 78.9679 92.9441 77.9545C93.9315 76.941 95.2703 76.371 96.6668 76.3694H134.156C135.553 76.371 136.891 76.941 137.879 77.9545C138.866 78.9679 139.422 80.3419 139.423 81.7751V139.594C139.422 141.028 138.866 142.402 137.879 143.415C136.891 144.428 135.553 144.998 134.156 145ZM96.6668 77.0053C95.4346 77.0068 94.2533 77.5098 93.382 78.404C92.5108 79.2981 92.0207 80.5105 92.0193 81.7751V139.594C92.0207 140.859 92.5108 142.071 93.382 142.965C94.2533 143.86 95.4346 144.363 96.6668 144.364H134.156C135.388 144.363 136.57 143.86 137.441 142.965C138.312 142.071 138.802 140.859 138.804 139.594V81.7751C138.802 80.5105 138.312 79.2981 137.441 78.404C136.57 77.5098 135.388 77.0068 134.156 77.0053H96.6668Z" fill="#3F3D56"/>
<path d="M126.565 90.6519H104.258C103.6 90.6519 102.97 90.3839 102.505 89.9068C102.04 89.4298 101.779 88.7827 101.779 88.1081C101.779 87.4334 102.04 86.7864 102.505 86.3093C102.97 85.8322 103.6 85.5642 104.258 85.5642H126.565C127.223 85.5642 127.853 85.8322 128.318 86.3093C128.783 86.7864 129.044 87.4334 129.044 88.1081C129.044 88.7827 128.783 89.4298 128.318 89.9068C127.853 90.3839 127.223 90.6519 126.565 90.6519Z" fill="#CCCCCC"/>
<path d="M126.565 100.191H104.258C103.6 100.191 102.97 99.9233 102.505 99.4463C102.04 98.9692 101.779 98.3222 101.779 97.6475C101.779 96.9728 102.04 96.3258 102.505 95.8487C102.97 95.3716 103.6 95.1036 104.258 95.1036H126.565C127.223 95.1036 127.853 95.3716 128.318 95.8487C128.783 96.3258 129.044 96.9728 129.044 97.6475C129.044 98.3222 128.783 98.9692 128.318 99.4463C127.853 99.9233 127.223 100.191 126.565 100.191Z" fill="#CCCCCC"/>
<path d="M128.424 124.517H102.399C101.7 124.516 101.031 124.231 100.537 123.724C100.044 123.218 99.7658 122.531 99.765 121.814V109.095C99.7658 108.378 100.044 107.691 100.537 107.185C101.031 106.678 101.7 106.393 102.399 106.392H128.424C129.122 106.393 129.792 106.678 130.286 107.185C130.779 107.691 131.057 108.378 131.058 109.095V121.814C131.057 122.531 130.779 123.218 130.286 123.724C129.792 124.231 129.122 124.516 128.424 124.517V124.517Z" fill="#E6E6E6"/>
<path d="M126.565 135.805H104.258C103.6 135.805 102.97 135.537 102.505 135.06C102.04 134.583 101.779 133.936 101.779 133.261C101.779 132.587 102.04 131.94 102.505 131.463C102.97 130.986 103.6 130.718 104.258 130.718H126.565C127.223 130.718 127.853 130.986 128.318 131.463C128.783 131.94 129.044 132.587 129.044 133.261C129.044 133.936 128.783 134.583 128.318 135.06C127.853 135.537 127.223 135.805 126.565 135.805Z" fill="#CCCCCC"/>
<path d="M137.874 85.5374C141.81 85.5374 145 82.263 145 78.2238C145 74.1846 141.81 70.9102 137.874 70.9102C133.938 70.9102 130.748 74.1846 130.748 78.2238C130.748 82.263 133.938 85.5374 137.874 85.5374Z" fill="#3F3D56"/>
<path d="M137.168 81.0137C137.007 81.014 136.851 80.9608 136.723 80.8621L136.715 80.8559L135.04 79.54C134.962 79.4792 134.897 79.4031 134.848 79.3163C134.798 79.2294 134.766 79.1334 134.753 79.0338C134.74 78.9342 134.747 78.8329 134.772 78.7358C134.797 78.6387 134.841 78.5476 134.9 78.4678C134.96 78.388 135.034 78.3211 135.119 78.2709C135.204 78.2206 135.297 78.1881 135.394 78.1751C135.492 78.162 135.59 78.1688 135.685 78.195C135.779 78.2212 135.868 78.2663 135.945 78.3277L137.03 79.1814L139.593 75.7504C139.653 75.6708 139.727 75.604 139.812 75.5538C139.896 75.5037 139.99 75.4711 140.086 75.458C140.183 75.4449 140.282 75.4514 140.376 75.4774C140.471 75.5033 140.559 75.548 140.637 75.6091L140.621 75.6313L140.637 75.6094C140.793 75.7328 140.896 75.9148 140.922 76.1155C140.947 76.3162 140.895 76.5192 140.775 76.68L137.76 80.7156C137.69 80.8086 137.6 80.8839 137.498 80.9356C137.395 80.9873 137.282 81.014 137.168 81.0137Z" fill="white"/>
<path d="M111.229 53.1032H73.7394C72.3429 53.1016 71.0041 52.5315 70.0167 51.5181C69.0293 50.5047 68.4739 49.1307 68.4723 47.6975V11.819C68.4739 10.3858 69.0293 9.01182 70.0167 7.99841C71.0041 6.98499 72.3429 6.41494 73.7394 6.41333H111.229C112.625 6.41494 113.964 6.98499 114.951 7.99841C115.939 9.01182 116.494 10.3858 116.496 11.819V47.6975C116.494 49.1307 115.939 50.5047 114.951 51.5181C113.964 52.5315 112.625 53.1016 111.229 53.1032V53.1032ZM73.7394 7.0493C72.5072 7.05073 71.3259 7.55371 70.4547 8.4479C69.5834 9.34209 69.0933 10.5545 69.0919 11.819V47.6975C69.0933 48.9621 69.5834 50.1744 70.4547 51.0686C71.3259 51.9628 72.5072 52.4658 73.7394 52.4672H111.229C112.461 52.4658 113.642 51.9628 114.513 51.0686C115.385 50.1744 115.875 48.9621 115.876 47.6975V11.819C115.875 10.5545 115.385 9.34209 114.513 8.4479C113.642 7.55371 112.461 7.05073 111.229 7.0493H73.7394Z" fill="#3F3D56"/>
<path d="M103.638 41.8415H81.3302C80.6728 41.8415 80.0424 41.5735 79.5775 41.0964C79.1127 40.6194 78.8516 39.9723 78.8516 39.2977C78.8516 38.623 79.1127 37.9759 79.5775 37.4989C80.0424 37.0218 80.6728 36.7538 81.3302 36.7538H103.638C104.295 36.7538 104.926 37.0218 105.391 37.4989C105.855 37.9759 106.117 38.623 106.117 39.2977C106.117 39.9723 105.855 40.6194 105.391 41.0964C104.926 41.5735 104.295 41.8415 103.638 41.8415Z" fill="#CCCCCC"/>
<path d="M103.638 32.3021H81.3302C80.6728 32.3021 80.0424 32.0341 79.5775 31.557C79.1127 31.0799 78.8516 30.4329 78.8516 29.7582C78.8516 29.0835 79.1127 28.4365 79.5775 27.9594C80.0424 27.4824 80.6728 27.2144 81.3302 27.2144H103.638C104.295 27.2144 104.926 27.4824 105.391 27.9594C105.855 28.4365 106.117 29.0835 106.117 29.7582C106.117 30.4329 105.855 31.0799 105.391 31.557C104.926 32.0341 104.295 32.3021 103.638 32.3021Z" fill="#CCCCCC"/>
<path d="M103.638 22.7626H81.3302C80.6728 22.7626 80.0424 22.4946 79.5775 22.0176C79.1127 21.5405 78.8516 20.8935 78.8516 20.2188C78.8516 19.5441 79.1127 18.8971 79.5775 18.42C80.0424 17.9429 80.6728 17.6749 81.3302 17.6749H103.638C104.295 17.6749 104.926 17.9429 105.391 18.42C105.855 18.8971 106.117 19.5441 106.117 20.2188C106.117 20.8935 105.855 21.5405 105.391 22.0176C104.926 22.4946 104.295 22.7626 103.638 22.7626Z" fill="#CCCCCC"/>
<path d="M115.256 14.6272C119.192 14.6272 122.383 11.3528 122.383 7.3136C122.383 3.27441 119.192 0 115.256 0C111.321 0 108.13 3.27441 108.13 7.3136C108.13 11.3528 111.321 14.6272 115.256 14.6272Z" fill="#3F3D56"/>
<path d="M114.55 10.1035C114.39 10.1038 114.234 10.0506 114.105 9.95192L114.097 9.94578L112.423 8.62985C112.345 8.56901 112.279 8.49297 112.23 8.4061C112.181 8.31923 112.149 8.22324 112.136 8.12363C112.123 8.02401 112.129 7.92274 112.154 7.82562C112.179 7.7285 112.223 7.63744 112.283 7.55766C112.342 7.47788 112.416 7.41095 112.501 7.36071C112.586 7.31048 112.68 7.27791 112.777 7.2649C112.874 7.25189 112.973 7.25868 113.067 7.28488C113.162 7.31108 113.25 7.35618 113.328 7.41758L114.412 8.27123L116.976 4.84023C117.035 4.76065 117.109 4.69387 117.194 4.6437C117.279 4.59353 117.372 4.56095 117.469 4.54783C117.566 4.5347 117.664 4.54129 117.759 4.56721C117.853 4.59313 117.941 4.63788 118.019 4.6989L118.003 4.72111L118.019 4.69923C118.176 4.82259 118.278 5.0046 118.304 5.20531C118.33 5.40601 118.277 5.60904 118.157 5.76983L115.142 9.8055C115.072 9.8985 114.983 9.97376 114.88 10.0254C114.777 10.0771 114.664 10.1038 114.55 10.1035Z" fill="white"/>
</svg>
