<svg width="43" height="48" viewBox="0 0 43 48" fill="none" xmlns="http://www.w3.org/2000/svg">
<path d="M33.9875 5.26172C34.9565 5.95703 35.8632 6.72656 36.6998 7.57031C40.5912 11.4766 42.9961 16.8711 42.9961 22.832C42.9961 28.793 40.5912 34.1875 36.6998 38.0938C32.8084 42 27.4344 44.4141 21.5 44.4141C18.7799 44.4141 16.1805 43.9062 13.7833 42.9844L17.0405 39.375C18.4608 39.7617 19.9551 39.9648 21.5 39.9648C26.2125 39.9648 30.4814 38.0469 33.5672 34.9453C36.657 31.8438 38.5638 27.5625 38.5638 22.832C38.5638 18.1016 36.6531 13.8164 33.5672 10.7188C32.9213 10.0703 32.2247 9.47656 31.4853 8.9375L33.9875 5.26172ZM7.07457 38.8359C6.80995 38.5938 6.54923 38.3477 6.29629 38.0938C2.40489 34.1875 0 28.793 0 22.832C0 16.8711 2.40489 11.4766 6.29629 7.57031C9.35493 4.5 13.3281 2.35156 17.772 1.57422L14.9119 7.02344C12.8455 7.89062 10.9854 9.15625 9.42887 10.7188C6.33909 13.8203 4.42842 18.1016 4.42842 22.832C4.42842 27.4492 6.2457 31.6367 9.20317 34.7188L7.07457 38.8359Z" fill="#393939"/>
<path fill-rule="evenodd" clip-rule="evenodd" d="M34.614 0L22.0992 0.167969L10.0437 23.1406L18.2545 23.2266L5.42456 48L34.3649 16.2344H23.5546L34.614 0Z" fill="#FFCA28"/>
</svg>
