<svg width="24" height="24" viewBox="0 0 24 24" fill="none" xmlns="http://www.w3.org/2000/svg">
<rect width="24" height="24" rx="12" fill="#D73B46"/>
<path fill-rule="evenodd" clip-rule="evenodd" d="M8.27618 8.5319L17 10.7513L15.7238 15.4647L7 13.2487L8.27618 8.5319ZM16.5512 8.14681L13.3786 9.21549L13.9045 8.16846C12.7077 7.23877 11.5029 7.02116 10.1991 7.63298C11.3728 5.6346 13.3015 5.3418 14.9586 6.0721L15.496 5L16.5512 8.14681ZM7.4603 15.8543L10.6283 14.7822L10.1001 15.8327C11.2969 16.7624 12.5017 16.9788 13.8067 16.3682C12.6306 18.3654 10.7054 18.6605 9.04948 17.9279L8.51093 19L7.45339 15.8543H7.4603ZM12.3843 10.6134C12.6607 10.688 12.9085 10.8419 13.0966 11.0557C13.2846 11.2695 13.4046 11.5337 13.4412 11.8149C13.4778 12.0961 13.4295 12.3818 13.3023 12.6359C13.1752 12.8899 12.9749 13.101 12.7267 13.2425C12.4785 13.384 12.1936 13.4496 11.9078 13.4309C11.622 13.4123 11.3482 13.3103 11.121 13.1378C10.8937 12.9653 10.7231 12.73 10.6307 12.4616C10.5383 12.1932 10.5283 11.9037 10.6018 11.6297C10.6507 11.4474 10.7355 11.2764 10.8513 11.1267C10.9671 10.9769 11.1116 10.8512 11.2766 10.7569C11.4416 10.6625 11.6238 10.6014 11.8127 10.577C12.0016 10.5526 12.1935 10.5654 12.3774 10.6146L12.3843 10.6134ZM9.62255 9.65869L15.2681 11.0612C15.2186 11.2458 15.245 11.4424 15.3417 11.6077C15.4383 11.773 15.5973 11.8936 15.7837 11.943L15.2854 13.807C15.0988 13.7579 14.9001 13.784 14.7329 13.8797C14.5658 13.9754 14.4437 14.1328 14.3936 14.3174L8.73188 12.916C8.75657 12.8246 8.76281 12.7293 8.75026 12.6354C8.73771 12.5416 8.70661 12.4512 8.65873 12.3693C8.61085 12.2874 8.54713 12.2156 8.47122 12.1581C8.39532 12.1006 8.3087 12.0585 8.21634 12.0342L8.71922 10.1702C8.90613 10.2194 9.10509 10.1933 9.27263 10.0977C9.44017 10.002 9.56266 9.84461 9.61335 9.65983L9.62255 9.65869Z" fill="#FFE600"/>
</svg>
