<svg width="64" height="65" viewBox="0 0 64 65" fill="none" xmlns="http://www.w3.org/2000/svg">
<g clip-path="url(#clip0)">
<path fill-rule="evenodd" clip-rule="evenodd" d="M1.5625 55.7152C13.3229 55.6904 25.0816 55.6904 36.8385 55.7152C37.1757 55.7166 37.4986 55.8535 37.7375 56.0963C37.9764 56.3391 38.1118 56.6682 38.1146 57.0122C38.1146 58.9524 37.3125 62.7478 33.0156 62.7478H5.39062C1.09375 62.7478 0.296875 58.9524 0.296875 57.0122C0.298234 56.6696 0.431849 56.3413 0.668758 56.0985C0.905667 55.8557 1.22678 55.718 1.5625 55.7152ZM31.1771 24.3531C40.9844 32.0607 44.4844 29.0202 50.1042 26.1923C54.4115 24.0288 56.0937 21.977 61.3229 24.1405V16.284H31.1875V24.3531H31.1771ZM50.3229 13.9185L52.2917 6.47668C52.3509 6.2139 52.4667 5.96786 52.6307 5.75641C52.7946 5.54495 53.0026 5.37337 53.2396 5.25408L61.3021 1.04943C61.7201 0.825647 62.2072 0.77715 62.6598 0.91426C63.1123 1.05137 63.4946 1.36327 63.7253 1.78361C63.956 2.20395 64.0169 2.69956 63.8951 3.16503C63.7732 3.6305 63.4783 4.02909 63.0729 4.27601L55.6354 8.13515L54.0729 13.9185L54.2135 13.472H62.8073C63.1076 13.4775 63.3941 13.6021 63.606 13.8194C63.8179 14.0367 63.9387 14.3296 63.9427 14.6361V14.6361V29.6581C63.9427 39.4122 58.7344 46.9817 48.974 47.7312V61.4561H56.5521C57.1927 61.4561 57.7031 62.4873 57.7031 63.1358C57.7031 63.7843 57.1823 64.8209 56.5521 64.8209H40.0104L40.2604 64.5498C41.0575 63.6411 41.6874 62.5931 42.1198 61.4561H44.0885V47.7737C43.5677 47.7737 43.0469 47.7099 42.526 47.6514C42.3838 47.1796 42.199 46.7223 41.974 46.2853C42.22 45.9698 42.4395 45.6338 42.6302 45.2807C43.1144 44.3737 43.4105 43.3747 43.5001 42.3459C43.5897 41.3171 43.4709 40.2805 43.151 39.3006C42.6262 37.66 41.7731 36.1485 40.6458 34.8621C38.2604 32.0554 34.0573 29.1956 28.4219 27.6328V14.6361C28.4219 14.3246 28.5431 14.0258 28.759 13.8055C28.9749 13.5852 29.2676 13.4614 29.5729 13.4614H50.4531L50.3229 13.9079V13.9185ZM35.1823 44.2866H3.64583C2.6789 44.2866 1.75157 43.8946 1.06784 43.1968C0.384113 42.499 0 41.5526 0 40.5657H0C0 35.2501 10.3385 31.4175 19.026 31.3325C36.1094 31.1571 43.776 44.2813 35.1719 44.2813L35.1823 44.2866ZM27.8906 35.7072C28.2792 35.7062 28.6593 35.8228 28.9829 36.0424C29.3065 36.2619 29.559 36.5746 29.7084 36.9406C29.8578 37.3067 29.8975 37.7098 29.8223 38.0989C29.7471 38.488 29.5605 38.8456 29.2861 39.1264C29.0117 39.4072 28.6619 39.5986 28.2808 39.6763C27.8998 39.7541 27.5047 39.7147 27.1456 39.5632C26.7865 39.4117 26.4796 39.1548 26.2636 38.8251C26.0476 38.4955 25.9323 38.1078 25.9323 37.7112C25.9323 37.1807 26.1384 36.6717 26.5056 36.2961C26.8727 35.9204 27.3708 35.7086 27.8906 35.7072V35.7072ZM10.8021 35.8508C11.1911 35.8476 11.5722 35.9624 11.8972 36.1807C12.2221 36.399 12.4762 36.7109 12.6273 37.0767C12.7783 37.4426 12.8194 37.8461 12.7454 38.2358C12.6714 38.6256 12.4857 38.9842 12.2117 39.266C11.9377 39.5479 11.5879 39.7404 11.2066 39.819C10.8252 39.8976 10.4296 39.8589 10.0699 39.7077C9.71025 39.5565 9.40265 39.2996 9.1862 38.9697C8.96974 38.6399 8.85418 38.2518 8.85417 37.8547C8.85416 37.3242 9.06032 36.8153 9.42743 36.4396C9.79454 36.0639 10.2926 35.8522 10.8125 35.8508H10.8021ZM19.2812 33.9425C19.6696 33.9425 20.0492 34.06 20.3721 34.2802C20.695 34.5004 20.9467 34.8134 21.0953 35.1796C21.2439 35.5457 21.2828 35.9487 21.2071 36.3374C21.1313 36.7261 20.9443 37.0832 20.6697 37.3635C20.3951 37.6437 20.0452 37.8346 19.6643 37.9119C19.2834 37.9892 18.8886 37.9496 18.5298 37.7979C18.171 37.6462 17.8644 37.3894 17.6486 37.0598C17.4329 36.7302 17.3177 36.3428 17.3177 35.9464C17.3177 35.415 17.5246 34.9052 17.8928 34.5294C18.2611 34.1536 18.7605 33.9425 19.2812 33.9425V33.9425ZM38.0208 49.3896C38.0736 49.4797 38.1024 49.5824 38.1042 49.6873C38.1042 49.7564 38.1042 49.8308 38.1042 49.9052C38.1042 49.9797 38.1042 50.0541 38.1042 50.1179C38.1023 50.2245 38.0736 50.3288 38.0208 50.4209C37.7344 51.7072 36.5729 53.3976 33.0104 53.3976H5.39062C1.82813 53.3976 0.671875 51.7126 0.380208 50.4209C0.327439 50.3288 0.298742 50.2245 0.296875 50.1179C0.296875 50.0541 0.296875 49.9797 0.296875 49.9052C0.291802 49.8327 0.291802 49.7599 0.296875 49.6873C0.298691 49.5824 0.327423 49.4797 0.380208 49.3896C0.671875 48.0979 1.83333 46.4129 5.39062 46.4129H19.7031L25 51.973L30.2083 46.4129H33.0156C36.5781 46.4129 37.7396 48.0979 38.026 49.3896H38.0208Z" fill="white"/>
</g>
<defs>
<clipPath id="clip0">
<rect width="64" height="64" fill="white" transform="translate(0 0.81665)"/>
</clipPath>
</defs>
</svg>
