<svg width="64" height="65" viewBox="0 0 64 65" fill="none" xmlns="http://www.w3.org/2000/svg">
<path d="M35.0214 28.9211C34.9556 29.1626 34.7648 29.3482 34.5182 29.3867C33.709 30.143 32.9229 30.9202 32.173 31.75C35.6102 32.7198 39.0375 33.3465 42.4517 33.5986C45.0896 33.7947 47.7242 33.7667 50.3523 33.5076C51.5627 33.357 52.8258 33.161 54.1678 32.9089C54.2598 32.8914 54.3454 32.8739 54.4276 32.8564C54.4506 32.8073 54.4572 32.7373 54.444 32.6358C54.3487 31.9531 53.8586 31.4559 53.352 30.9552L53.3158 30.9237L53.158 30.7662C52.9442 30.5526 52.7238 30.3355 52.4968 30.1185L52.4179 30.1045C52.1449 30.0624 51.941 29.8314 51.9048 29.5548L51.6745 29.3412C51.1713 28.8755 50.6483 28.4099 50.1056 27.9477L49.8326 27.7132C48.2735 26.3792 44.7377 23.3402 43.3825 23.2177C41.6228 23.0566 39.8433 24.6391 38.1428 26.1551C38.0244 26.2602 37.929 26.3442 37.5738 26.6558L37.1791 27.0024C36.4489 27.6431 35.7253 28.2768 35.0214 28.9211ZM56.5393 52.883C56.5031 52.5258 56.7432 52.2072 57.0787 52.1652C57.4142 52.1267 57.7135 52.3823 57.753 52.7394C57.8352 53.5097 57.9273 54.6931 57.9207 55.7504C57.9174 56.5347 57.8549 57.2594 57.6938 57.7251C57.5786 58.0612 57.2267 58.2362 56.9109 58.1102C56.5952 57.9876 56.4307 57.613 56.5491 57.2769C56.661 56.9583 56.7004 56.3876 56.707 55.7434C56.707 54.7631 56.6149 53.6287 56.5393 52.883ZM29.2522 54.0453C29.2883 53.6882 29.591 53.4326 29.9265 53.4712C30.2619 53.5097 30.5021 53.8318 30.4659 54.1889C30.4034 54.7911 30.3869 55.3583 30.4264 55.887C30.4626 56.3946 30.5514 56.8638 30.6994 57.2839C30.8145 57.62 30.6534 57.9947 30.3376 58.1172C30.0218 58.2397 29.6699 58.0682 29.5548 57.7321C29.3706 57.1964 29.2587 56.6117 29.2127 55.9885C29.1634 55.3793 29.1798 54.7281 29.2522 54.0453ZM58.1444 42.0049C56.4768 42.418 54.8881 42.7821 53.3619 43.0902C52.2633 43.3983 51.1483 43.6469 50.0201 43.8465C48.7899 44.0601 47.5499 44.2071 46.3066 44.2876C44.8955 44.3787 43.445 44.3822 41.9846 44.3016C37.5047 44.2176 33.3801 43.3213 29.0384 41.4377C28.4628 43.2968 27.9957 45.3485 27.6865 47.6277C27.3379 50.1871 27.1866 53.03 27.2885 56.2056C27.3017 56.6152 27.3379 56.9268 27.3675 57.1614C27.5188 58.4323 27.5319 58.5373 26.0189 58.9715C25.4696 59.129 25.065 59.3531 24.9006 59.7347C24.7361 60.1199 24.7526 60.701 25.019 61.5728C25.5716 61.6148 26.1932 61.5728 26.8247 61.5273C27.6799 61.4678 28.5516 61.4083 29.3936 61.5343C30.5547 61.7094 31.8079 61.9299 33.1071 62.1575C34.7188 62.4411 36.4061 62.7387 38.0738 62.9768C41.4748 63.4599 44.5732 63.481 47.744 63.1869C50.9411 62.8893 54.2006 62.2696 57.9108 61.4643C57.9536 61.4538 57.9964 61.4503 58.0358 61.4503L62.6571 61.5168C62.7953 60.8516 62.8183 60.3474 62.7098 59.9658C62.5946 59.5632 62.292 59.2656 61.7756 59.017L61.7033 58.982C60.7757 58.5303 60.404 58.3518 60.2067 57.8511C60.0784 57.529 60.0982 57.2419 60.131 56.7657C60.1541 56.4261 60.1902 55.9605 60.1738 55.3303C60.1113 52.7184 59.8548 49.7809 59.4239 47.1691L59.4206 47.1481C59.0982 45.1104 58.6641 43.2898 58.1444 42.0049ZM42.3398 43.0097C45.6257 43.0412 49.1287 42.6211 53.079 41.8263C53.1744 41.7983 53.2698 41.7738 53.3652 41.7458L53.4277 41.7318L58.5457 40.3978C59.0686 40.2333 59.4304 39.9147 59.664 39.4805C59.9238 38.9939 60.0455 38.3427 60.0587 37.5724C60.0718 36.7181 59.8383 35.3772 59.4436 34.1238C59.1147 33.0874 58.6871 32.1351 58.2102 31.6275C58.174 31.5889 58.1345 31.5504 58.095 31.5154C57.5129 31.862 57.2662 32.2226 57.0359 32.5553C56.6544 33.1119 56.309 33.6126 55.2828 33.9592C55.0558 34.1273 54.7401 34.2043 54.3783 34.2603L54.1414 34.2953C54.0197 34.3128 53.8915 34.3303 53.8191 34.3408C52.7304 34.5299 51.6417 34.6805 50.5529 34.789C49.9181 34.8695 49.2932 34.936 48.6847 34.9886C46.9151 35.1426 45.2277 35.1846 43.5371 35.1181C41.5866 35.0446 38.8829 34.768 36.3272 34.2883C34.2846 33.9032 32.3177 33.385 30.8606 32.7198C30.1995 32.4187 29.6863 32.0931 29.3278 31.7465C29.2291 31.6485 29.137 31.5504 29.0614 31.4489C28.42 32.5062 27.5549 34.1833 27.1109 35.7728C26.8149 36.8267 26.7063 37.8175 26.9859 38.4967C27.2063 39.0324 27.9924 39.5401 28.9463 39.9882C29.1272 40.0687 29.3081 40.1493 29.4857 40.2263C30.7027 40.7375 32.0611 41.1471 32.8472 41.3817L33.0018 41.4272C35.1069 42.0609 37.3501 42.523 39.6131 42.7926C40.442 42.8907 41.2741 42.9607 42.103 43.0062L42.3398 43.0097ZM59.2627 41.4972C59.8219 42.8872 60.2823 44.8058 60.631 46.924L60.6343 46.9485C61.0717 49.6094 61.3349 52.6169 61.3974 55.3058C61.4138 56.0305 61.3809 56.5137 61.3546 56.8673C61.3349 57.1474 61.3217 57.3189 61.3349 57.3469C61.3513 57.3854 61.598 57.5045 62.2164 57.8056L62.2887 57.8406C63.1406 58.2537 63.6538 58.8034 63.8807 59.5947C64.0879 60.3194 64.0189 61.2017 63.7228 62.3501C63.6505 62.6267 63.4104 62.8297 63.1275 62.8262L58.0885 62.7527C54.3421 63.5615 51.0562 64.1882 47.8525 64.4858C44.6061 64.7904 41.4254 64.7624 37.9192 64.2652C36.2055 64.0236 34.5214 63.726 32.913 63.4424C31.6302 63.2149 30.3935 62.9978 29.2259 62.8227C28.5088 62.7142 27.6964 62.7702 26.9004 62.8262C26.0617 62.8858 25.2394 62.9418 24.4828 62.8192C24.2691 62.7842 24.0816 62.6337 23.9993 62.4026C23.4928 60.9636 23.4698 59.9448 23.7921 59.199C24.1342 58.3973 24.8183 57.9701 25.6998 57.7181C26.1866 57.578 26.1834 57.5605 26.1538 57.3259C26.1209 57.0598 26.0814 56.7132 26.0649 56.2476C25.9597 52.9845 26.1176 50.068 26.4728 47.4457C26.8017 45.0264 27.3017 42.8522 27.92 40.881C26.9497 40.3558 26.1505 39.7326 25.8544 39.0219C25.44 38.0206 25.5551 36.7216 25.9268 35.4017C26.4235 33.6266 27.3872 31.778 28.0779 30.6576C28.4364 30.0729 28.864 29.5478 29.4133 29.1451C29.9692 28.739 30.6303 28.4729 31.4428 28.4274C31.9 28.3644 32.3999 28.3049 32.8966 28.2523C33.2485 28.2138 33.6301 28.1753 34.005 28.1403C34.7846 27.4226 35.5838 26.7188 36.3963 26.0081L36.791 25.6615L37.3501 25.1643C39.2414 23.4803 41.2182 21.7192 43.4779 21.9258C45.2014 22.0833 48.9412 25.2939 50.5858 26.7083L50.8588 26.9429C51.4015 27.4086 51.9377 27.8847 52.4607 28.3679C52.6481 28.5394 52.8356 28.718 53.0231 28.8966C53.9967 29.0576 55.0756 29.2327 56.0525 29.4357L56.3945 29.5058C57.1083 29.6528 57.7398 29.7858 58.3154 30.1185C58.4404 30.15 58.5555 30.227 58.641 30.3355C58.7858 30.4441 58.9272 30.5736 59.0653 30.7207C59.6804 31.3789 60.2067 32.5132 60.5882 33.7176C61.0224 35.1006 61.2823 36.6096 61.2658 37.5969C61.2494 38.5807 61.0816 39.4385 60.7165 40.1248C60.3942 40.734 59.9172 41.2031 59.2627 41.4972ZM29.8738 30.402C29.9133 30.5211 30.0054 30.6506 30.1435 30.7872C30.3244 30.9622 30.5744 31.1373 30.8869 31.3088C31.4066 30.7137 31.9394 30.1465 32.4854 29.6003C32.1697 29.6353 31.8638 29.6738 31.5809 29.7158L31.5349 29.7193C30.9527 29.7508 30.4922 29.9329 30.1106 30.213C30.0284 30.269 29.9495 30.332 29.8738 30.402ZM55.6281 32.3137C55.8058 32.1526 55.9275 31.9776 56.0525 31.792C56.2465 31.5084 56.4537 31.2073 56.7794 30.9062C56.5853 30.8607 56.3847 30.8187 56.1742 30.7732L55.8354 30.6996C55.4571 30.6226 55.0525 30.5456 54.6414 30.4721C55.0953 30.9727 55.4867 31.5224 55.6281 32.3137ZM49.0399 32.0966C49.2077 32.0966 49.3425 32.2402 49.3425 32.4187C49.3425 32.5973 49.2077 32.7408 49.0399 32.7408C48.8722 32.7408 48.7373 32.5973 48.7373 32.4187C48.7373 32.2402 48.8722 32.0966 49.0399 32.0966ZM41.6754 25.8015C41.8333 25.8015 41.9616 25.9381 41.9616 26.1061C41.9616 26.2742 41.8333 26.4107 41.6754 26.4107C41.5175 26.4107 41.3893 26.2742 41.3893 26.1061C41.3893 25.9381 41.5175 25.8015 41.6754 25.8015ZM45.2113 28.9596C45.3692 28.9596 45.4975 29.0961 45.4975 29.2642C45.4975 29.4322 45.3692 29.5688 45.2113 29.5688C45.0534 29.5688 44.9251 29.4322 44.9251 29.2642C44.9251 29.0961 45.0534 28.9596 45.2113 28.9596ZM42.2543 30.7417C42.4846 30.7417 42.672 30.9412 42.672 31.1863C42.672 31.4314 42.4846 31.631 42.2543 31.631C42.0241 31.631 41.8399 31.4279 41.8399 31.1828C41.8399 30.9377 42.0241 30.7417 42.2543 30.7417ZM42.103 27.8672C42.2609 27.8672 42.3892 28.0038 42.3892 28.1718C42.3892 28.3399 42.2609 28.4764 42.103 28.4764C41.9451 28.4764 41.8169 28.3399 41.8169 28.1718C41.8169 28.0038 41.9451 27.8672 42.103 27.8672ZM39.9091 28.9316C40.1394 28.9316 40.3269 29.1311 40.3269 29.3762C40.3269 29.6213 40.1394 29.8209 39.9091 29.8209C39.6789 29.8209 39.4914 29.6213 39.4914 29.3762C39.4914 29.1311 39.6789 28.9316 39.9091 28.9316ZM34.8997 31.1233C35.0214 31.1233 35.1234 31.2283 35.1234 31.3614C35.1234 31.4909 35.0247 31.5994 34.8997 31.5994C34.778 31.5994 34.676 31.4944 34.676 31.3614C34.676 31.2318 34.778 31.1233 34.8997 31.1233ZM36.6857 30.8292C36.916 30.8292 37.1035 31.0288 37.1035 31.2738C37.1035 31.5189 36.916 31.7185 36.6857 31.7185C36.4555 31.7185 36.268 31.5189 36.268 31.2738C36.2713 31.0288 36.4555 30.8292 36.6857 30.8292ZM38.9454 31.7115C39.1033 31.7115 39.2316 31.848 39.2316 32.0161C39.2316 32.1841 39.1033 32.3207 38.9454 32.3207C38.7875 32.3207 38.6592 32.1841 38.6592 32.0161C38.6592 31.848 38.7875 31.7115 38.9454 31.7115ZM37.5804 28.641C37.758 28.641 37.9027 28.795 37.9027 28.9841C37.9027 29.1731 37.758 29.3272 37.5804 29.3272C37.4028 29.3272 37.258 29.1731 37.258 28.9841C37.2548 28.795 37.3995 28.641 37.5804 28.641ZM44.5798 25.679C44.7179 25.679 44.8297 25.798 44.8297 25.9451C44.8297 26.0921 44.7179 26.2112 44.5798 26.2112C44.4416 26.2112 44.3298 26.0921 44.3298 25.9451C44.3298 25.798 44.4416 25.679 44.5798 25.679ZM45.1784 31.9286C45.3001 31.9286 45.4021 32.0336 45.4021 32.1666C45.4021 32.2962 45.3034 32.4047 45.1784 32.4047C45.0567 32.4047 44.9547 32.2997 44.9547 32.1666C44.9547 32.0336 45.0534 31.9286 45.1784 31.9286ZM49.1057 28.2383C49.2274 28.2383 49.3294 28.3434 49.3294 28.4764C49.3294 28.6095 49.2307 28.7145 49.1057 28.7145C48.9807 28.7145 48.882 28.6095 48.882 28.4764C48.882 28.3434 48.984 28.2383 49.1057 28.2383ZM46.8822 30.4686C47.073 30.4686 47.2243 30.6331 47.2243 30.8327C47.2243 31.0358 47.0697 31.1968 46.8822 31.1968C46.6914 31.1968 46.5401 31.0323 46.5401 30.8327C46.5368 30.6296 46.6914 30.4686 46.8822 30.4686ZM48.6353 30.0729C48.836 30.0729 49.0004 30.2445 49.0004 30.4616C49.0004 30.6751 48.8393 30.8502 48.6353 30.8502C48.4347 30.8502 48.2702 30.6786 48.2702 30.4616C48.2735 30.248 48.4347 30.0729 48.6353 30.0729ZM50.849 31.2248C51.0003 31.2248 51.122 31.3544 51.122 31.5154C51.122 31.6765 51.0003 31.806 50.849 31.806C50.6977 31.806 50.576 31.6765 50.576 31.5154C50.576 31.3579 50.6977 31.2248 50.849 31.2248ZM50.4477 29.4952C50.6154 29.4952 50.7503 29.6388 50.7503 29.8174C50.7503 29.9959 50.6154 30.1395 50.4477 30.1395C50.2799 30.1395 50.1451 29.9959 50.1451 29.8174C50.1451 29.6388 50.2799 29.4952 50.4477 29.4952Z" fill="white"/>
<path d="M28.6372 31.5287L43.7938 34.7367L55.919 33.1327L58.4451 30.994L60.466 35.806L59.9608 40.6181L51.3721 42.7568L42.2781 43.2914L31.1633 41.6874L26.6163 38.4794V34.7367L28.6372 31.5287Z" fill="white"/>
<path d="M28.6372 41.1527L43.2886 43.8261L57.9399 41.1527L59.4556 45.4301L60.466 51.3114V58.2622L62.9921 59.3315V62.0048L57.9399 61.4702L52.3825 63.0742L43.2886 64.1435L35.2051 63.0742L25.1007 62.0048L24.5955 59.3315L26.6163 58.7968V50.7768L28.6372 41.1527Z" fill="white"/>
<path fill-rule="evenodd" clip-rule="evenodd" d="M15.7913 12.8151C17.6238 11.5821 18.1314 10.5214 16.3754 7.18696C15.1319 8.92579 13.5362 10.3398 15.7913 12.8151ZM20.5832 37.9238C22.0181 35.8183 22.154 34.4576 19.12 31.6148C18.476 34.018 17.3466 36.2217 20.5832 37.9238ZM16.86 35.3231C18.2949 33.2175 18.4308 31.8568 15.3968 29.014C14.7528 31.4172 13.6239 33.6159 16.86 35.3231ZM13.2084 32.7762C14.4846 30.9044 14.6052 29.6952 11.9076 27.1667C11.3339 29.3049 10.3284 31.2609 13.2084 32.7762ZM9.95885 30.5142C11.0932 28.8535 11.1978 27.7776 8.80356 25.5344C8.29754 27.4329 7.40604 29.1677 9.95885 30.5142ZM7.0787 28.503C8.13405 26.9567 8.23352 25.9544 6.002 23.8635C5.53086 25.6321 4.69949 27.2491 7.0787 28.503ZM4.42359 27.4286C2.52805 28.2625 0.992689 27.4955 0 24.351C1.17567 24.1083 4.23556 23.9958 4.42359 27.4286ZM20.0208 38.9079C18.9165 41.2445 17.8612 41.9608 14.2334 40.1505C15.9252 38.4787 17.2388 36.4054 20.0208 38.9079ZM16.2976 36.3071C15.1933 38.6437 14.138 39.3601 10.5103 37.5497C12.202 35.8779 13.5156 33.8047 16.2976 36.3071ZM12.6497 33.748C11.6655 35.826 10.7314 36.4637 7.50709 34.8537C9.00913 33.3665 10.1788 31.5246 12.6497 33.748ZM9.41062 31.4776C8.53935 33.3213 7.70647 33.8872 4.84404 32.4598C6.17521 31.1374 7.21562 29.5012 9.41062 31.4776ZM6.53099 29.4614C5.71826 31.1793 4.94254 31.704 2.27735 30.3735C3.51944 29.1457 4.48816 27.6225 6.53099 29.4614ZM36.4728 25.3263C34.1692 26.2185 32.8946 25.9888 31.1295 22.1285C33.4899 22.1226 35.798 21.5653 36.4728 25.3263ZM35.1143 20.8293C32.8107 21.7215 31.5361 21.4918 29.771 17.6316C32.1314 17.6257 34.4369 17.0704 35.1143 20.8293ZM33.7854 16.4199C31.7375 17.2137 30.6048 17.0093 29.0346 13.5769C31.1349 13.5709 33.1863 13.0757 33.7854 16.4199ZM32.607 12.4972C30.7894 13.2036 29.7824 13.019 28.3896 9.97278C30.2514 9.96797 32.0728 9.532 32.607 12.4972ZM31.5567 9.01866C29.8646 9.6755 28.9259 9.50566 27.6277 6.66641C29.364 6.66492 31.0599 6.25541 31.5567 9.01866ZM31.2978 6.02289C32.5692 4.31729 32.287 2.54552 29.6951 0.68335C29.1541 1.81253 28.226 4.90253 31.2978 6.02289ZM37.518 25.0167C39.9423 24.5237 40.8795 23.6424 40.2142 19.4565C38.2357 20.7278 35.9964 21.5081 37.518 25.0167ZM36.1595 20.5197C38.5838 20.0268 39.521 19.1455 38.8557 14.9596C36.8772 16.2309 34.6379 17.0112 36.1595 20.5197ZM34.8207 16.1136C36.9772 15.6732 37.8101 14.894 37.2179 11.1734C35.4586 12.3013 33.4666 12.9946 34.8207 16.1136ZM33.6296 12.1964C35.5425 11.8075 36.2826 11.1121 35.7587 7.80959C34.1977 8.81096 32.4277 9.42823 33.6296 12.1964ZM32.5747 8.71701C34.3573 8.3538 35.0466 7.70839 34.5574 4.63304C33.1044 5.56631 31.4546 6.1382 32.5747 8.71701ZM27.7169 31.6565C27.4934 31.3443 27.5396 30.9132 27.8149 30.6925C28.0928 30.4697 28.497 30.5442 28.7184 30.8535L33.6482 37.7391C33.8717 38.0513 33.8255 38.4825 33.5502 38.7032C33.2723 38.926 32.8682 38.8514 32.6468 38.5422L27.7169 31.6565ZM21.7295 40.0782C21.418 39.8737 21.3098 39.4459 21.4797 39.1242C21.6523 38.8004 22.0445 38.7084 22.3539 38.91C22.9564 39.3077 23.5725 39.6667 24.1885 40.0257C25.4228 40.7466 26.6686 41.4722 27.8089 42.4771C28.0895 42.7249 28.1437 43.1637 27.9242 43.4509C27.7095 43.7389 27.3041 43.772 27.024 43.5191C25.9942 42.6111 24.8052 41.9187 23.6257 41.2281C22.9844 40.8568 22.3436 40.4806 21.7295 40.0782ZM36.7462 27.374C36.6444 27.0013 36.8363 26.6295 37.1776 26.5413C37.5188 26.4531 37.8761 26.6812 37.9779 27.0539C38.1804 27.7863 38.3466 28.543 38.515 29.3027C38.8316 30.7363 39.1519 32.1809 39.7362 33.5157C39.8905 33.8695 39.758 34.2724 39.4395 34.4212C39.1189 34.5671 38.736 34.4012 38.5791 34.0495C37.932 32.575 37.5952 31.0556 37.2642 29.55C37.1027 28.8173 36.9428 28.0925 36.7462 27.374ZM26.6591 30.2424C24.4582 32.3271 22.9575 32.6404 19.4792 28.981C22.0912 27.8971 24.4281 26.2041 26.6591 30.2424ZM23.3781 25.6598C21.1773 27.7445 19.6766 28.0578 16.1983 24.3984C18.8124 23.3175 21.1492 21.6244 23.3781 25.6598ZM20.1699 21.1673C18.2138 23.0232 16.878 23.3016 13.7847 20.0474C16.1076 19.0842 18.1848 17.5762 20.1699 21.1673ZM17.3159 17.1695C15.581 18.8157 14.3954 19.0617 11.6476 16.1749C13.7112 15.3221 15.5546 13.9831 17.3159 17.1695ZM14.7819 13.6245C13.1644 15.1579 12.0623 15.388 9.50411 12.6968C11.4223 11.9004 13.143 10.6551 14.7819 13.6245ZM13.3112 10.2791C14.0473 7.7279 13.034 5.80529 9.43139 4.837C9.27861 6.38737 9.46697 10.3855 13.3112 10.2791ZM27.6973 29.41C30.1891 27.7317 30.8801 26.2875 28.4924 21.7536C26.7997 24.1216 24.6247 26.0464 27.6973 29.41ZM24.4163 24.8274C26.9082 23.1491 27.5992 21.705 25.2114 17.171C23.5209 19.5419 21.3459 21.4668 24.4163 24.8274ZM21.195 20.3453C23.4125 18.8546 24.0272 17.569 21.9039 13.537C20.3992 15.6429 18.4653 17.3512 21.195 20.3453ZM18.3305 16.356C20.2974 15.0338 20.842 13.8924 18.9593 10.3118C17.6253 12.1836 15.9085 13.6993 18.3305 16.356Z" fill="white"/>
</svg>
