<svg width="64" height="64" viewBox="0 0 64 64" fill="none" xmlns="http://www.w3.org/2000/svg">
<path fill-rule="evenodd" clip-rule="evenodd" d="M52.2582 29.6292C53.7859 29.0526 56.1547 27.7204 57.5262 26.3232C58.0897 25.748 58.5115 25.1313 58.6859 24.5144C58.9093 23.7293 58.7749 22.9846 58.1412 22.3281C57.9242 22.0999 57.6395 21.8907 57.2816 21.7052C58.2409 20.8836 59.2124 19.8164 60.0444 18.6869C61.2757 17.0067 62.2039 15.1468 62.3326 13.6686C62.4492 12.2994 61.9744 11.0295 61.178 10.0193C60.328 8.9456 59.1038 8.15214 57.8397 7.85349C56.7579 7.59544 55.6464 7.69669 54.4933 8.17175C54.0806 8.34281 53.6627 8.56061 53.2447 8.82567C53.6795 5.36294 52.8498 3.01475 51.4512 1.6089C50.1438 0.291638 48.3581 -0.173363 46.6317 0.0562221C44.9307 0.283294 43.2751 1.19296 42.1818 2.6306C41.0885 4.06823 40.5597 6.01307 41.1134 8.3001C39.7963 7.97999 38.6275 8.2327 37.6906 8.85182C36.9984 9.31333 36.4412 9.96797 36.057 10.7463C35.6857 11.4997 35.4686 12.3642 35.4443 13.2653C35.393 15.046 36.0669 16.9782 37.6927 18.4294C37.3247 18.6526 36.9864 18.9262 36.6878 19.2514C35.5823 20.4355 35.1915 21.5914 35.3458 22.748C35.492 23.8407 36.1321 24.8499 37.1083 25.8321C37.9701 26.7075 39.1108 27.4814 40.4653 28.2836C39.1047 28.2636 37.8322 28.4053 36.6532 28.7042C35.002 29.1205 33.5235 29.8443 32.2146 30.8595C31.3084 31.566 30.5044 32.3517 29.8144 33.2023C27.92 35.5363 26.8682 38.3286 26.7316 41.1508C26.7231 41.3181 26.7202 41.4806 26.7167 41.6484C26.6937 41.7194 26.6751 41.7962 26.6665 41.8741C26.648 42.0402 26.6712 42.1951 26.7261 42.3376C26.829 44.7758 27.6112 47.1872 29.1183 49.2982C29.7163 50.14 30.4355 50.937 31.273 51.6679C32.5839 52.8174 34.0052 53.7003 35.3939 54.5587C38.6003 56.5476 41.6177 58.4215 41.8498 63.1064C41.8618 63.4072 42.0158 63.7022 42.2852 63.8677C42.7149 64.1345 43.2716 63.9842 43.533 63.5394C46.1222 59.084 49.7074 57.6146 53.0971 56.224C53.2554 56.1622 53.4093 56.0946 53.9542 55.8695C55.4039 55.2687 56.7473 54.4883 57.9432 53.5818C60.3628 51.7455 62.2192 49.3444 63.2051 46.6921C64.2055 43.9994 64.316 41.0482 63.2242 38.1518C62.8464 37.1445 62.3211 36.1477 61.6421 35.1711C60.4929 33.5189 58.9192 32.236 56.9926 31.2673C55.5922 30.56 54.0064 30.0219 52.2582 29.6292ZM37.0603 30.5395C35.6532 30.8927 34.3992 31.504 33.2945 32.3625C32.499 32.981 31.7969 33.6674 31.2006 34.4019C29.5877 36.3826 28.6901 38.7397 28.547 41.12L36.2834 41.951C36.7822 42.0046 37.1395 42.4685 37.0819 42.9877C37.0243 43.5068 36.5736 43.884 36.0748 43.8304L28.6028 43.0278C28.8071 44.8254 29.4595 46.5872 30.5818 48.163C31.106 48.897 31.7264 49.5836 32.4484 50.2181C33.64 51.2602 35.0044 52.1107 36.341 52.9373C39.4054 54.8425 42.3193 56.6476 43.3202 60.5903C46.029 57.1039 49.3132 55.7545 52.4491 54.4679L53.295 54.1228C54.0626 53.8007 54.8005 53.4281 55.4987 53.004L49.0443 52.3107C48.5455 52.2571 48.1882 51.7932 48.2458 51.274C48.3034 50.7548 48.7541 50.3777 49.2529 50.4313L57.7673 51.3459C59.4742 49.8376 60.7821 48.0132 61.5162 46.0379C62.3585 43.7695 62.4514 41.2945 61.5357 38.8582C61.2122 37.9987 60.7622 37.1413 60.1747 36.2954C59.1991 34.8982 57.8519 33.8026 56.1981 32.9682C54.5061 32.114 52.4864 31.5293 50.2064 31.153L41.8465 30.255L41.8477 30.2446C40.0896 30.0768 38.499 30.1739 37.0603 30.5395ZM51.1732 29.9908C51.1922 30.0926 51.2012 30.1934 51.1891 30.3024L51.1732 29.9908ZM51.0512 10.6705C50.9413 10.8426 50.8883 11.047 50.8963 11.2475C50.6622 12.084 50.3854 12.8948 50.0573 13.6686C49.7005 14.5182 49.2879 15.3249 48.8218 16.0682C48.5461 16.5061 48.6629 17.0913 49.0809 17.3726C49.2268 17.4671 49.388 17.516 49.5438 17.5222C50.7017 17.594 51.6274 17.8038 52.0244 18.3193C52.4038 18.8118 52.3611 19.7424 51.663 21.3486C51.6557 21.3688 51.6484 21.389 51.6417 21.4041C50.9293 23.366 50.168 24.9496 49.3339 26.1892C48.6074 27.2774 47.825 28.097 46.9787 28.6733L46.7542 28.6492C45.7894 25.882 45.8054 18.8701 45.8367 11.6759C44.3778 16.3158 43.1582 22.6205 43.4048 27.8114C41.2525 26.603 39.4774 25.5875 38.3798 24.4714C37.6764 23.7601 37.2251 23.097 37.139 22.4626L37.1396 22.4574C37.066 21.8926 37.312 21.2675 37.9821 20.5515C38.2171 20.2983 38.4869 20.0961 38.7869 19.9392C39.1031 19.7735 39.449 19.6583 39.8308 19.5837C40.3258 19.4898 40.6583 18.9949 40.5684 18.4862C40.5165 18.1811 40.3362 17.9411 40.0878 17.8146C38.0369 16.738 37.2083 14.9258 37.2578 13.2972C37.2765 12.674 37.4176 12.085 37.6703 11.5815C37.9052 11.1024 38.2423 10.7026 38.651 10.4313C39.5061 9.8664 40.7537 9.85857 42.2588 10.8503C42.6774 11.1264 43.2424 10.9927 43.5132 10.5543C43.698 10.2536 43.7028 9.89165 43.5532 9.60239C42.2883 7.12865 42.5878 5.1119 43.6048 3.77114C44.3909 2.73655 45.5941 2.083 46.839 1.91727C48.0584 1.75405 49.2958 2.06559 50.1858 2.95975C51.4524 4.23585 52.0532 6.69079 51.0512 10.6705ZM52.6768 11.6227C53.5402 10.8013 54.3654 10.2332 55.143 9.9122C55.9362 9.58761 56.6917 9.51116 57.4145 9.68337C58.3047 9.89457 59.1712 10.4552 59.7729 11.2186C60.2908 11.8731 60.5958 12.6729 60.5285 13.5063C60.4363 14.6102 59.6476 16.1225 58.6059 17.55C57.4571 19.1235 56.0234 20.5351 54.858 21.1664C54.4123 21.4075 54.2331 21.9766 54.4596 22.437C54.5916 22.7034 54.8298 22.8761 55.0969 22.9258C56.038 23.1319 56.5959 23.381 56.8581 23.6561C56.958 23.7561 56.9753 23.8736 56.9421 23.9908C56.86 24.2762 56.6101 24.6171 56.2626 24.9738C55.0899 26.1718 53.008 27.3299 51.6541 27.8411C51.106 28.0502 50.5525 28.2166 49.9974 28.3514C50.2827 28.009 50.556 27.6391 50.8221 27.2422C51.7478 25.8601 52.58 24.137 53.3429 22.0386C54.3441 19.7032 54.253 18.1594 53.4544 17.1227C52.9124 16.413 52.0735 16.0129 51.0619 15.8045C51.2994 15.3466 51.5182 14.8763 51.7182 14.3934C52.1001 13.4993 52.4156 12.5665 52.6768 11.6227ZM41.3931 35.6596C40.8943 35.606 40.5369 35.1421 40.5946 34.6229C40.6522 34.1037 41.1029 33.7266 41.6017 33.7802L46.3702 34.2924C46.869 34.346 47.2263 34.8099 47.1687 35.3291C47.1111 35.8483 46.6604 36.2254 46.1616 36.1718L41.3931 35.6596ZM45.9518 41.3819C45.453 41.3283 45.0956 40.8644 45.1533 40.3452C45.2109 39.8261 45.6616 39.4489 46.1604 39.5025L54.7746 40.4278C55.2734 40.4814 55.6307 40.9453 55.5731 41.4645C55.5155 41.9837 55.0648 42.3608 54.566 42.3072L45.9518 41.3819Z" fill="white"/>
<path fill-rule="evenodd" clip-rule="evenodd" d="M10.6968 31.1784C12.4067 30.6933 14.0168 29.6309 15.5185 27.9329C15.8719 29.2901 16.4466 30.6875 17.2569 32.1304C16.3094 32.4382 15.3185 32.6436 14.2923 32.7653C2.03412 34.1229 0.808582 48.0164 10.3024 54.7423C13.144 56.754 16.3783 58.6996 20.639 59.927C24.5055 60.6576 27.0624 59.2951 29.0154 57.0633C31.3371 57.1061 33.5552 56.5912 35.4644 54.9191C38.2736 52.4571 39.7464 46.6729 40.1664 43.2976C41.0817 35.9197 39.0115 27.7818 29.7624 27.1882C27.2376 27.025 24.4955 27.7978 21.4648 29.8306C20.7793 30.3983 20.0593 30.8747 19.3018 31.2719C19.2952 31.2564 19.2853 31.2423 19.28 31.2299C18.027 29.0337 17.3869 26.9793 17.2858 25.0535C17.1856 23.1674 17.607 21.3877 18.4778 19.7042C18.7477 19.1865 18.5239 18.5908 17.9849 18.3678C17.4425 18.1461 16.7878 18.3885 16.5166 18.9031C15.4801 20.9053 14.9808 23.0222 15.0987 25.2721C15.1139 25.564 15.1386 25.8593 15.1762 26.1567C11.7312 23.6937 7.53555 23.4069 2.15354 26.5399L0 27.6719C2.95207 30.0966 6.31287 32.4267 10.6968 31.1784ZM12.0983 49.8077C12.4524 49.5174 12.9768 49.5355 13.2694 49.8485C14.2098 50.86 15.3177 51.6612 16.5455 52.3006C17.7922 52.9468 19.167 53.4315 20.6325 53.7991C21.0673 53.9084 21.3059 54.3308 21.1645 54.745C21.0218 55.1561 20.5531 55.4024 20.1148 55.2945C18.5283 54.8964 17.0354 54.3691 15.6743 53.6607C14.2942 52.9454 13.0514 52.0431 11.9874 50.9003C11.6948 50.5873 11.7443 50.098 12.0983 49.8077Z" fill="white"/>
</svg>
