<svg width="64" height="64" viewBox="0 0 64 64" fill="none" xmlns="http://www.w3.org/2000/svg">
<path fill-rule="evenodd" clip-rule="evenodd" d="M0.127903 20.163C-0.133004 17.9428 0.0112445 15.6527 0.505866 13.4895C1.95851 7.13773 5.49962 3.88301 11.184 1.60722C14.2279 0.388149 17.4397 -0.149769 19.8461 0.035781C38.5097 1.48739 48.5754 36.2862 35.0203 45.4991C34.0548 46.1547 32.977 46.6374 31.6123 47.2139C29.842 47.9582 27.4361 48.9705 25.5694 48.4301C23.6716 47.8856 22.3046 46.0628 21.2405 43.518C20.3473 40.6192 18.4784 38.3938 15.779 36.6942C8.8331 32.3183 1.37161 30.7314 0.127903 20.163ZM16.4174 11.929C17.8986 11.2839 19.7844 12.5658 20.6343 14.7913C21.4843 17.0167 20.9722 19.3428 19.4946 19.9862C18.0135 20.6313 16.1277 19.3494 15.2777 17.1239C14.4293 14.9023 14.9399 12.5724 16.4174 11.929ZM9.39538 11.0425C9.93127 9.16307 10.8133 7.44344 12.0236 6.12217C15.3496 2.49082 19.853 3.18295 23.9157 4.74138C26.8647 6.12817 29.4122 8.48399 31.5499 11.8524C33.5036 14.9371 35.1124 18.8642 36.3613 23.6713C37.1681 26.7718 37.5439 29.5454 37.5046 32.0116C37.458 34.8538 36.4169 39.824 34.3361 41.7861C32.7139 43.3134 30.7037 42.9464 29.4544 39.7191C25.3053 28.2952 15.2735 31.1109 10.4522 22.3401C8.57941 18.9406 8.32427 14.7923 9.39538 11.0425Z" fill="white"/>
<path fill-rule="evenodd" clip-rule="evenodd" d="M59.6958 27.9522L63.0691 23.6819C58.3756 19.3197 47.9641 21.6202 43.4763 25.6793C41.2736 24.8757 39.1045 24.8069 36.8756 24.9262C31.5202 25.2109 36.0079 30.6384 37.7208 32.7827C36.2884 35.6296 34.9795 38.5729 33.7342 41.5713C32.7842 44.7534 30.7872 45.9702 27.9225 45.5615L24.7586 44.7901C23.0832 44.3814 17.1369 42.2784 18.1654 46.535C19.1938 49.29 21.7219 51.7007 24.3959 54.0746C24.6278 55.9526 25.0017 57.8812 25.4393 59.828C26.6921 65.3886 28.6293 65.2876 29.9457 60.1403L31.7595 53.0552C32.3205 50.5252 33.4873 49.3864 35.0019 49.2257C39.6281 48.739 43.4576 50.7548 49.6694 48.3763C49.9499 50.3645 50.4062 52.3114 50.997 54.2215C51.6478 55.622 52.5752 55.7598 53.9103 54.0333C55.2454 51.269 56.0981 48.1558 56.5394 44.735C61.1655 38.8484 64.4229 30.597 63.9554 25.739L59.6958 27.9522ZM55.9223 23.8931C54.9724 23.5809 53.9926 24.2742 53.7383 25.4405C53.484 26.6068 54.0487 27.8099 54.9986 28.1221C55.9485 28.4343 56.9246 27.741 57.1827 26.5747C57.437 25.4038 56.8723 24.2053 55.9223 23.8931Z" fill="white"/>
</svg>
