<svg width="445" height="642" viewBox="0 0 445 642" fill="none" xmlns="http://www.w3.org/2000/svg">
<path d="M413.103 0.00407464H172.488C160.877 0.00350598 149.611 3.95354 140.542 11.2048C131.474 18.4561 125.142 28.5771 122.588 39.9041L1.01222 579.172C-0.313899 585.054 -0.337278 591.155 0.94374 597.047C2.22476 602.939 4.77915 608.479 8.42781 613.28C12.0765 618.08 16.7311 622.024 22.0652 624.836C27.3993 627.647 33.2838 629.257 39.3062 629.554L286.661 641.741C299.906 642.394 312.936 638.205 323.32 629.956C333.703 621.707 340.731 609.962 343.091 596.913L412.061 215.646L417.192 217.112L430.392 144.847L425.111 143.527L444.362 37.1011C445.187 32.5425 444.996 27.8581 443.803 23.3817C442.61 18.9054 440.444 14.7474 437.459 11.2042C434.475 7.66106 430.745 4.81995 426.537 2.88345C422.329 0.94696 417.745 -0.0372209 413.112 0.00107629L413.103 0.00407464Z" fill="#3F3D56"/>
<path d="M204.161 16.5H176.077C168.011 16.5001 160.188 19.2587 153.906 24.3178C147.624 29.377 143.261 36.4325 141.541 44.313L24.8412 574.31C24.169 577.39 24.1695 580.578 24.8426 583.657C25.5157 586.737 26.8457 589.634 28.7415 592.153C30.6374 594.671 33.0545 596.75 35.8277 598.248C38.6009 599.747 41.6649 600.629 44.8102 600.834L291.361 616.994C298.317 617.45 305.197 615.329 310.688 611.036C316.18 606.742 319.898 600.577 321.134 593.717L420.714 45.75C421.359 42.1718 421.21 38.4958 420.279 34.9814C419.347 31.467 417.656 28.1998 415.324 25.4104C412.992 22.621 410.077 20.3773 406.783 18.8377C403.489 17.2981 399.898 16.5001 396.262 16.5H369.619C367.04 16.4999 364.533 17.35 362.487 18.9186C360.44 20.4872 358.967 22.6869 358.296 25.177C357.704 27.3761 356.404 29.3187 354.596 30.7037C352.788 32.0887 350.574 32.8389 348.296 32.838H221.808C217.35 32.8379 213.056 31.1552 209.784 28.1262C206.512 25.0973 204.504 20.9453 204.161 16.5Z" fill="white"/>
<path d="M340.455 385.547C340.935 385.564 341.404 385.407 341.778 385.107C342.151 384.806 342.405 384.381 342.491 383.909L397.014 82.9921C397.066 82.706 397.056 82.4122 396.984 82.1305C396.912 81.8489 396.78 81.5861 396.597 81.3601C396.416 81.1358 396.188 80.9542 395.928 80.8282C395.669 80.7022 395.385 80.6349 395.097 80.6311L147.038 77.701H147.015C146.565 77.7049 146.129 77.8615 145.779 78.1453C145.43 78.429 145.187 78.8232 145.09 79.2631L80.8142 370.413C80.7514 370.697 80.7507 370.992 80.8122 371.276C80.8736 371.56 80.9957 371.828 81.1702 372.061C81.343 372.292 81.5646 372.482 81.8192 372.618C82.0738 372.753 82.3551 372.831 82.6432 372.846L340.455 385.547Z" fill="#E6E6E6"/>
<path d="M125.19 405.003C124.965 405.003 124.746 405.08 124.569 405.22C124.393 405.36 124.269 405.556 124.217 405.776L121.894 415.732C121.862 415.873 121.86 416.019 121.889 416.16C121.917 416.302 121.977 416.435 122.062 416.552C122.148 416.668 122.258 416.765 122.384 416.835C122.51 416.905 122.65 416.946 122.794 416.957L254.024 426.284C254.268 426.3 254.509 426.226 254.702 426.078C254.896 425.93 255.029 425.716 255.077 425.477L257.311 413.958C257.338 413.818 257.335 413.674 257.302 413.536C257.269 413.397 257.207 413.268 257.12 413.155C257.032 413.043 256.922 412.95 256.796 412.884C256.67 412.817 256.532 412.779 256.389 412.77L125.251 405.005L125.19 405.003Z" fill="#E6E6E6"/>
<path d="M284.627 463.265C284.864 463.284 285.1 463.218 285.292 463.079C285.485 462.94 285.622 462.738 285.678 462.507L288.522 450.964C288.557 450.823 288.561 450.675 288.533 450.532C288.505 450.389 288.446 450.254 288.36 450.136C288.274 450.018 288.164 449.921 288.036 449.85C287.909 449.779 287.768 449.737 287.622 449.727L120.033 438.006C119.806 437.988 119.579 438.049 119.392 438.179C119.204 438.309 119.067 438.5 119.004 438.719L116.049 448.694C116.007 448.837 115.997 448.987 116.021 449.134C116.044 449.281 116.1 449.42 116.184 449.543C116.268 449.666 116.378 449.768 116.507 449.842C116.635 449.917 116.779 449.962 116.927 449.974L284.627 463.265Z" fill="#E6E6E6"/>
<path d="M275.627 500.265C275.864 500.284 276.1 500.218 276.292 500.079C276.485 499.94 276.622 499.738 276.678 499.507L279.522 487.964C279.557 487.823 279.561 487.675 279.533 487.532C279.505 487.389 279.446 487.254 279.36 487.136C279.274 487.018 279.164 486.921 279.036 486.85C278.909 486.779 278.768 486.737 278.622 486.727L111.033 475.006C110.806 474.988 110.579 475.049 110.392 475.179C110.204 475.309 110.067 475.5 110.004 475.719L107.049 485.694C107.007 485.837 106.997 485.987 107.021 486.134C107.044 486.281 107.1 486.42 107.184 486.543C107.268 486.666 107.378 486.768 107.507 486.842C107.635 486.917 107.779 486.962 107.927 486.974L275.627 500.265Z" fill="#E6E6E6"/>
<path d="M276.579 566.13C276.818 566.155 277.057 566.092 277.253 565.953C277.449 565.814 277.588 565.609 277.643 565.376L283.656 541.325C283.692 541.184 283.696 541.038 283.669 540.895C283.642 540.753 283.584 540.618 283.5 540.5C283.416 540.382 283.307 540.284 283.181 540.212C283.055 540.14 282.915 540.097 282.77 540.085L101.717 528.816C101.477 528.8 101.239 528.869 101.045 529.011C100.85 529.154 100.713 529.361 100.657 529.595L95.5283 552.678C95.4975 552.817 95.4964 552.96 95.5253 553.099C95.5542 553.238 95.6124 553.369 95.6959 553.484C95.7794 553.599 95.8864 553.694 96.0098 553.765C96.1331 553.835 96.27 553.878 96.4113 553.891L276.579 566.13Z" fill="#D73B46"/>
</svg>
