<svg width="24" height="24" viewBox="0 0 24 24" fill="none" xmlns="http://www.w3.org/2000/svg">
<rect width="24" height="24" rx="12" fill="#D73B46"/>
<path d="M8 11.3175L8.76297 9.62736H11.641C11.6046 9.50741 11.5417 9.38924 11.4507 9.27376C11.3596 9.15828 11.2476 9.05892 11.1147 8.97388C10.9818 8.88973 10.8334 8.81991 10.6695 8.76888C10.5056 8.71517 10.3308 8.68921 10.1487 8.68921H8L8.76297 7H17L16.237 8.6901H14.2476C14.3259 8.74919 14.3988 8.81812 14.4662 8.89779C14.5335 8.97477 14.5936 9.05444 14.6455 9.14128C14.6947 9.22542 14.7393 9.31047 14.7757 9.39461C14.8094 9.47876 14.8331 9.55843 14.8431 9.62736H16.9991L16.2361 11.3175H14.6774C14.5627 11.6039 14.3933 11.8761 14.1666 12.1321C13.9399 12.3908 13.6768 12.6182 13.3772 12.8232C13.075 13.0282 12.7499 13.1973 12.3976 13.3379C12.0461 13.4757 11.6892 13.568 11.3269 13.6199L15.6552 18.0009H12.2346L8.37511 13.8365V12.2852H10.0832C10.247 12.2852 10.4091 12.2592 10.5675 12.2055C10.7287 12.1518 10.8771 12.0802 11.01 11.9906C11.1457 11.9038 11.2622 11.7982 11.3615 11.6836C11.4607 11.5654 11.5308 11.4455 11.5727 11.3175H8V11.3175Z" fill="#FFE600"/>
</svg>
