<svg width="243" height="198" viewBox="0 0 243 198" fill="none" xmlns="http://www.w3.org/2000/svg">
<path d="M54.2439 24.6647C-6.75611 36.6647 0.243833 66.6647 0.243968 78.6647C0.244408 117.475 49.3575 179.476 75.2439 197.165H242.744V18.6647C225.744 -3.33531 181.744 -4.83525 160.744 8.66475C139.744 22.1648 115.244 12.6647 54.2439 24.6647Z" fill="#FFFCE6"/>
<path d="M175.59 123.885L107.725 141.368C105.423 141.959 102.981 141.611 100.934 140.402C98.888 139.194 97.4044 137.222 96.8092 134.921L76.2849 55.1856C75.6949 52.8825 76.0421 50.4394 77.2504 48.3922C78.4586 46.345 80.4293 44.8608 82.7301 44.2653L145.868 28L162.028 35.2374L182.036 112.965C182.626 115.268 182.278 117.711 181.07 119.758C179.862 121.805 177.891 123.29 175.59 123.885V123.885Z" fill="#ECEBEB"/>
<path d="M83.3728 46.7652C81.7344 47.1893 80.3311 48.2462 79.4706 49.7041C78.6102 51.1619 78.3629 52.9017 78.7831 54.5418L99.3074 134.277C99.7313 135.916 100.788 137.32 102.245 138.181C103.702 139.041 105.441 139.289 107.081 138.868L174.946 121.385C176.585 120.961 177.988 119.904 178.848 118.446C179.709 116.988 179.956 115.249 179.536 113.609L159.838 37.0855L145.636 30.7251L83.3728 46.7652Z" fill="#FAFAFA"/>
<path d="M161.855 35.6487L151.352 38.3545C150.585 38.552 149.771 38.4367 149.09 38.034C148.408 37.6313 147.914 36.9741 147.716 36.207L145.719 28.4464C145.71 28.4124 145.711 28.3767 145.722 28.3432C145.732 28.3098 145.752 28.2801 145.779 28.2574C145.806 28.2347 145.838 28.2201 145.873 28.2151C145.908 28.2101 145.943 28.215 145.975 28.2293L161.884 35.2973C161.92 35.3131 161.949 35.3394 161.969 35.3728C161.989 35.4061 161.998 35.4448 161.994 35.4834C161.991 35.522 161.976 35.5587 161.951 35.5883C161.926 35.6179 161.893 35.639 161.855 35.6487V35.6487Z" fill="#ECEBEB"/>
<path d="M156.329 103.741L125.431 111.701C125.242 111.749 125.044 111.76 124.85 111.733C124.656 111.705 124.469 111.64 124.3 111.54C124.131 111.441 123.984 111.309 123.866 111.152C123.748 110.995 123.662 110.817 123.614 110.627C123.565 110.437 123.554 110.239 123.581 110.045C123.609 109.851 123.674 109.664 123.774 109.495C123.873 109.326 124.005 109.179 124.162 109.061C124.319 108.943 124.497 108.857 124.687 108.808L155.585 100.848C155.775 100.799 155.972 100.788 156.167 100.816C156.361 100.843 156.547 100.909 156.716 101.009C156.885 101.108 157.032 101.24 157.15 101.397C157.268 101.554 157.354 101.732 157.403 101.922C157.452 102.112 157.463 102.31 157.435 102.504C157.408 102.698 157.342 102.885 157.243 103.054C157.143 103.223 157.011 103.37 156.854 103.488C156.698 103.606 156.519 103.692 156.329 103.741Z" fill="#CCCCCC"/>
<path d="M163.548 107.085L126.687 116.581C126.304 116.68 125.897 116.622 125.556 116.421C125.215 116.22 124.968 115.891 124.869 115.507C124.771 115.124 124.828 114.717 125.03 114.376C125.231 114.035 125.559 113.788 125.943 113.689L162.804 104.193C163.187 104.095 163.594 104.152 163.934 104.354C164.275 104.555 164.521 104.884 164.62 105.267C164.719 105.65 164.661 106.057 164.46 106.398C164.259 106.739 163.931 106.986 163.548 107.085V107.085Z" fill="#CCCCCC"/>
<path d="M112.82 121.287C115.734 121.287 118.096 118.924 118.096 116.009C118.096 113.094 115.734 110.731 112.82 110.731C109.907 110.731 107.544 113.094 107.544 116.009C107.544 118.924 109.907 121.287 112.82 121.287Z" fill="#E6E6E6"/>
<path d="M153.044 89.9278L112.008 100.495C110.822 100.799 109.564 100.62 108.51 99.9975C107.456 99.3747 106.691 98.359 106.385 97.1733L97.7853 63.7523C97.4814 62.5658 97.6604 61.3073 98.283 60.2527C98.9055 59.1981 99.9208 58.4336 101.106 58.127L142.142 47.5594C143.328 47.2554 144.586 47.4345 145.64 48.0573C146.694 48.6801 147.458 49.6957 147.765 50.8815L156.364 84.3025C156.668 85.4889 156.489 86.7475 155.867 87.8021C155.244 88.8567 154.229 89.6211 153.044 89.9278Z" fill="#FAFAFA"/>
<path d="M153.044 89.9278L112.008 100.495C110.822 100.799 109.564 100.62 108.51 99.9975C107.456 99.3747 106.691 98.359 106.385 97.1733L97.7853 63.7523C97.4814 62.5658 97.6604 61.3073 98.283 60.2527C98.9055 59.1981 99.9208 58.4336 101.106 58.127L142.142 47.5594C143.328 47.2554 144.586 47.4345 145.64 48.0573C146.694 48.6801 147.458 49.6957 147.765 50.8815L156.364 84.3025C156.668 85.4889 156.489 86.7475 155.867 87.8021C155.244 88.8567 154.229 89.6211 153.044 89.9278ZM101.241 58.6533C100.196 58.9239 99.2998 59.5984 98.7505 60.5289C98.2012 61.4594 98.0433 62.5699 98.3114 63.6168L106.911 97.0378C107.181 98.0841 107.856 98.9802 108.786 99.5298C109.716 100.079 110.826 100.237 111.872 99.9691L152.908 89.4015C153.954 89.1309 154.85 88.4564 155.399 87.5258C155.949 86.5953 156.106 85.4848 155.838 84.438L147.239 51.017C146.968 49.9707 146.294 49.0745 145.364 48.525C144.434 47.9755 143.324 47.8175 142.277 48.0857L101.241 58.6533Z" fill="#E6E6E6"/>
<path d="M140.06 58.7969L119.35 64.1302C119.169 64.1808 118.975 64.1607 118.808 64.074C118.642 63.9873 118.514 63.8405 118.451 63.6632C118.422 63.5706 118.412 63.473 118.422 63.3764C118.431 63.2798 118.461 63.1862 118.508 63.1013C118.555 63.0164 118.619 62.9419 118.695 62.8826C118.772 62.8232 118.86 62.78 118.954 62.7558L140.036 57.3268C140.888 57.7585 140.664 58.6415 140.06 58.797L140.06 58.7969Z" fill="#ECEBEB"/>
<path d="M140.996 62.4311L120.285 67.7644C120.104 67.8149 119.911 67.7949 119.744 67.7082C119.577 67.6215 119.449 67.4747 119.387 67.2974C119.357 67.2048 119.347 67.1072 119.357 67.0106C119.367 66.914 119.396 66.8203 119.443 66.7354C119.49 66.6505 119.554 66.5761 119.631 66.5167C119.708 66.4573 119.796 66.4142 119.89 66.39L140.972 60.961C141.823 61.3927 141.599 62.2756 140.995 62.4311L140.996 62.4311Z" fill="#ECEBEB"/>
<path d="M116.34 70.9865L110.02 72.6142C109.813 72.6672 109.594 72.636 109.411 72.5276C109.227 72.4192 109.094 72.2424 109.041 72.036L107.121 64.5742C107.068 64.3677 107.099 64.1486 107.207 63.965C107.316 63.7814 107.493 63.6484 107.699 63.595L114.019 61.9674C114.226 61.9145 114.445 61.9457 114.628 62.0541C114.812 62.1625 114.945 62.3392 114.998 62.5456L116.918 70.0074C116.971 70.2139 116.94 70.433 116.832 70.6166C116.723 70.8002 116.547 70.9332 116.34 70.9866V70.9865Z" fill="#E6E6E6"/>
<path d="M142.85 69.8876L111.242 78.0272C111.061 78.0778 110.868 78.0577 110.701 77.971C110.534 77.8843 110.406 77.7375 110.344 77.5603C110.314 77.4676 110.304 77.3701 110.314 77.2734C110.324 77.1768 110.353 77.0832 110.4 76.9983C110.447 76.9134 110.511 76.839 110.588 76.7796C110.665 76.7202 110.753 76.6771 110.847 76.6529L142.826 68.4175C143.678 68.8492 143.454 69.7321 142.85 69.8876L142.85 69.8876Z" fill="#ECEBEB"/>
<path d="M143.785 73.5229L112.177 81.6626C111.996 81.7131 111.803 81.693 111.636 81.6063C111.469 81.5197 111.341 81.3728 111.279 81.1956C111.25 81.103 111.239 81.0054 111.249 80.9088C111.259 80.8121 111.288 80.7185 111.335 80.6336C111.382 80.5487 111.446 80.4743 111.523 80.4149C111.6 80.3555 111.688 80.3124 111.782 80.2882L143.761 72.0528C144.613 72.4845 144.389 73.3674 143.785 73.5229V73.5229Z" fill="#ECEBEB"/>
<path d="M144.72 77.1558L113.112 85.2954C112.931 85.346 112.738 85.3259 112.571 85.2392C112.404 85.1525 112.277 85.0057 112.214 84.8284C112.185 84.7358 112.175 84.6383 112.184 84.5416C112.194 84.445 112.223 84.3514 112.27 84.2665C112.317 84.1816 112.381 84.1072 112.458 84.0478C112.535 83.9884 112.623 83.9453 112.717 83.921L144.696 75.6857C145.548 76.1173 145.324 77.0003 144.72 77.1558V77.1558Z" fill="#ECEBEB"/>
<path d="M145.655 80.7908L114.048 88.9304C113.866 88.981 113.673 88.9609 113.506 88.8742C113.339 88.7875 113.212 88.6407 113.149 88.4634C113.12 88.3708 113.11 88.2733 113.119 88.1766C113.129 88.08 113.158 87.9864 113.205 87.9015C113.253 87.8166 113.316 87.7422 113.393 87.6828C113.47 87.6234 113.558 87.5803 113.652 87.556L145.632 79.3207C146.483 79.7524 146.259 80.6353 145.655 80.7908L145.655 80.7908Z" fill="#ECEBEB"/>
<path d="M146.59 84.4239L114.983 92.5636C114.802 92.6141 114.608 92.594 114.441 92.5073C114.274 92.4206 114.147 92.2738 114.084 92.0966C114.055 92.004 114.045 91.9064 114.054 91.8097C114.064 91.7131 114.093 91.6195 114.141 91.5346C114.188 91.4497 114.252 91.3753 114.328 91.3159C114.405 91.2565 114.493 91.2134 114.587 91.1892L146.567 82.9538C147.418 83.3855 147.194 84.2684 146.59 84.4239V84.4239Z" fill="#ECEBEB"/>
<path d="M113.209 117.86C113.094 117.889 112.973 117.881 112.863 117.836L112.856 117.833L111.419 117.223C111.353 117.195 111.292 117.154 111.241 117.102C111.19 117.051 111.15 116.989 111.123 116.922C111.096 116.855 111.082 116.783 111.083 116.711C111.084 116.638 111.099 116.567 111.127 116.5C111.155 116.433 111.196 116.373 111.248 116.322C111.3 116.271 111.361 116.231 111.428 116.204C111.496 116.177 111.567 116.164 111.64 116.164C111.712 116.165 111.784 116.18 111.85 116.209L112.782 116.605L114.002 113.733C114.03 113.666 114.072 113.606 114.123 113.555C114.175 113.505 114.236 113.465 114.303 113.438C114.37 113.411 114.442 113.397 114.514 113.398C114.586 113.398 114.658 113.413 114.724 113.442L114.725 113.442L114.717 113.46L114.725 113.442C114.859 113.499 114.965 113.607 115.02 113.743C115.075 113.878 115.073 114.03 115.016 114.164L113.58 117.541C113.547 117.619 113.496 117.688 113.432 117.743C113.368 117.798 113.292 117.838 113.21 117.859L113.209 117.86Z" fill="#FAFAFA"/>
<path d="M201.62 154.27H131.541C129.164 154.267 126.886 153.322 125.206 151.64C123.525 149.959 122.58 147.68 122.577 145.303V62.9664C122.58 60.5889 123.525 58.3096 125.206 56.6285C126.886 54.9474 129.164 54.0018 131.541 53.9991H196.738L210.584 65.0394V145.303C210.581 147.68 209.636 149.959 207.956 151.64C206.275 153.322 203.997 154.267 201.62 154.27V154.27Z" fill="#E6E6E6"/>
<path d="M131.541 56.5806C129.849 56.5825 128.226 57.2559 127.029 58.453C125.833 59.6502 125.16 61.2733 125.158 62.9664V145.303C125.16 146.996 125.833 148.619 127.029 149.816C128.226 151.013 129.849 151.686 131.541 151.688H201.62C203.313 151.686 204.935 151.013 206.132 149.816C207.329 148.619 208.002 146.996 208.004 145.303V66.2831L195.836 56.5806H131.541Z" fill="#FAFAFA"/>
<path d="M187.99 80.5217H156.084C155.688 80.5217 155.308 80.3644 155.028 80.0844C154.748 79.8043 154.591 79.4245 154.591 79.0284C154.591 78.6324 154.748 78.2526 155.028 77.9725C155.308 77.6925 155.688 77.5352 156.084 77.5352H187.99C188.386 77.5352 188.765 77.6925 189.045 77.9725C189.325 78.2526 189.482 78.6324 189.482 79.0284C189.482 79.4245 189.325 79.8043 189.045 80.0844C188.765 80.3644 188.386 80.5217 187.99 80.5217V80.5217Z" fill="#D73B46"/>
<path d="M194.147 85.5617H156.083C155.688 85.5611 155.309 85.4036 155.029 85.1236C154.75 84.8436 154.593 84.4641 154.593 84.0684C154.593 83.6727 154.75 83.2931 155.029 83.0132C155.309 82.7332 155.688 82.5756 156.083 82.5751H194.147C194.343 82.5748 194.537 82.6132 194.719 82.6882C194.9 82.7631 195.065 82.873 195.204 83.0117C195.343 83.1504 195.453 83.3151 195.528 83.4964C195.603 83.6777 195.642 83.8721 195.642 84.0684C195.642 84.2646 195.603 84.459 195.528 84.6403C195.453 84.8216 195.343 84.9863 195.204 85.125C195.065 85.2637 194.9 85.3737 194.719 85.4486C194.537 85.5235 194.343 85.5619 194.147 85.5617V85.5617Z" fill="#D73B46"/>
<path d="M187.99 100.12H156.085C155.689 100.12 155.309 100.278 155.029 100.558C154.75 100.838 154.592 101.218 154.592 101.614C154.592 102.01 154.75 102.389 155.029 102.669C155.309 102.949 155.689 103.107 156.085 103.107H187.99C188.386 103.107 188.766 102.949 189.045 102.669C189.325 102.389 189.483 102.01 189.483 101.614C189.483 101.218 189.325 100.838 189.045 100.558C188.766 100.278 188.386 100.12 187.99 100.12V100.12Z" fill="#CCCCCC"/>
<path d="M194.148 105.161H156.085C155.689 105.161 155.309 105.318 155.029 105.598C154.75 105.879 154.592 106.258 154.592 106.654C154.592 107.05 154.75 107.43 155.029 107.71C155.309 107.99 155.689 108.148 156.085 108.148H194.148C194.544 108.148 194.923 107.99 195.203 107.71C195.483 107.43 195.64 107.05 195.64 106.654C195.64 106.258 195.483 105.879 195.203 105.598C194.923 105.318 194.544 105.161 194.148 105.161Z" fill="#CCCCCC"/>
<path d="M187.99 125.694H156.084C155.688 125.694 155.308 125.537 155.028 125.257C154.748 124.977 154.591 124.597 154.591 124.201C154.591 123.805 154.748 123.425 155.028 123.145C155.308 122.865 155.688 122.707 156.084 122.707H187.99C188.386 122.707 188.765 122.865 189.045 123.145C189.325 123.425 189.482 123.805 189.482 124.201C189.482 124.597 189.325 124.977 189.045 125.257C188.765 125.537 188.386 125.694 187.99 125.694V125.694Z" fill="#CCCCCC"/>
<path d="M194.147 130.734H156.083C155.688 130.733 155.309 130.576 155.029 130.296C154.75 130.016 154.593 129.636 154.593 129.241C154.593 128.845 154.75 128.465 155.029 128.185C155.309 127.905 155.688 127.748 156.083 127.747H194.147C194.343 127.747 194.537 127.785 194.719 127.86C194.9 127.935 195.065 128.045 195.204 128.184C195.343 128.323 195.453 128.487 195.528 128.669C195.603 128.85 195.642 129.044 195.642 129.241C195.642 129.437 195.603 129.631 195.528 129.812C195.453 129.994 195.343 130.158 195.204 130.297C195.065 130.436 194.9 130.546 194.719 130.621C194.537 130.696 194.343 130.734 194.147 130.734Z" fill="#CCCCCC"/>
<path d="M142.797 86.8264C145.711 86.8264 148.073 84.4633 148.073 81.5484C148.073 78.6334 145.711 76.2704 142.797 76.2704C139.883 76.2704 137.521 78.6334 137.521 81.5484C137.521 84.4633 139.883 86.8264 142.797 86.8264Z" fill="#D73B46"/>
<path d="M142.274 83.5618C142.155 83.562 142.04 83.5236 141.945 83.4523L141.939 83.4479L140.699 82.499C140.642 82.4551 140.593 82.4002 140.557 82.3374C140.52 82.2747 140.497 82.2055 140.487 82.1336C140.478 82.0618 140.482 81.9887 140.501 81.9187C140.52 81.8487 140.552 81.783 140.596 81.7255C140.64 81.668 140.695 81.6197 140.758 81.5835C140.821 81.5472 140.89 81.5237 140.962 81.5143C141.034 81.5049 141.107 81.5097 141.177 81.5286C141.247 81.5474 141.312 81.5799 141.37 81.6241L142.173 82.2402L144.07 79.7634C144.114 79.7059 144.169 79.6577 144.232 79.6215C144.295 79.5853 144.364 79.5618 144.435 79.5524C144.507 79.5429 144.58 79.5476 144.65 79.5663C144.72 79.585 144.785 79.6173 144.843 79.6613L144.843 79.6614L144.831 79.6778L144.843 79.6614C144.959 79.7505 145.035 79.8818 145.054 80.0267C145.073 80.1716 145.034 80.3181 144.945 80.4341L142.713 83.3461C142.661 83.4132 142.595 83.4675 142.519 83.5048C142.443 83.5421 142.359 83.5614 142.275 83.5611L142.274 83.5618Z" fill="#FFE600"/>
<path d="M148.615 104.134C148.615 104.827 148.479 105.514 148.214 106.154C147.949 106.795 147.561 107.377 147.071 107.867C146.581 108.357 145.999 108.746 145.359 109.012C144.719 109.277 144.033 109.414 143.34 109.414C143.295 109.415 143.249 109.413 143.204 109.408C142.167 109.382 141.16 109.05 140.311 108.454C139.461 107.858 138.806 107.024 138.427 106.058C138.049 105.091 137.964 104.034 138.183 103.019C138.401 102.005 138.915 101.077 139.658 100.353C140.401 99.628 141.341 99.1389 142.361 98.9464C143.381 98.7538 144.435 98.8664 145.391 99.27C146.347 99.6737 147.162 100.35 147.736 101.216C148.31 102.081 148.615 103.096 148.615 104.134V104.134Z" fill="#CCCCCC"/>
<path d="M142.797 131.999C145.711 131.999 148.073 129.636 148.073 126.721C148.073 123.806 145.711 121.443 142.797 121.443C139.883 121.443 137.521 123.806 137.521 126.721C137.521 129.636 139.883 131.999 142.797 131.999Z" fill="#CCCCCC"/>
<path d="M210.314 65.3947H199.468C198.677 65.3947 197.917 65.0801 197.357 64.52C196.797 63.9599 196.483 63.2002 196.483 62.4081V54.3944C196.483 54.3593 196.493 54.3249 196.511 54.2952C196.53 54.2655 196.557 54.2416 196.588 54.2263C196.62 54.211 196.655 54.205 196.69 54.2088C196.725 54.2127 196.758 54.2263 196.785 54.2481L210.43 65.0618C210.46 65.0858 210.482 65.1188 210.493 65.156C210.504 65.1932 210.503 65.2328 210.49 65.2694C210.478 65.306 210.454 65.3378 210.422 65.3602C210.391 65.3827 210.353 65.3947 210.314 65.3947Z" fill="#CCCCCC"/>
<path d="M148.615 104.134C148.615 104.827 148.479 105.514 148.214 106.154C147.949 106.795 147.56 107.377 147.071 107.867C146.581 108.357 145.999 108.746 145.359 109.012C144.719 109.277 144.033 109.414 143.34 109.414C143.295 109.415 143.249 109.413 143.204 109.408C142.523 107.708 142.26 105.868 142.438 104.044C142.616 102.221 143.23 100.467 144.228 98.9302C145.455 99.1407 146.569 99.7784 147.371 100.731C148.174 101.683 148.615 102.888 148.615 104.134V104.134Z" fill="#D73B46"/>
<path d="M154.591 101.615C154.592 101.219 154.749 100.839 155.029 100.559C155.309 100.279 155.689 100.121 156.085 100.12H164.035C164.5 101.065 164.83 102.07 165.016 103.107H156.085C155.689 103.107 155.31 102.95 155.029 102.67C154.749 102.39 154.592 102.011 154.591 101.615V101.615Z" fill="#D73B46"/>
<path d="M165.201 105.161C165.201 106.17 165.068 107.174 164.804 108.148H156.085C155.689 108.148 155.309 107.99 155.029 107.71C154.75 107.43 154.592 107.05 154.592 106.654C154.592 106.258 154.75 105.879 155.029 105.598C155.309 105.318 155.689 105.161 156.085 105.161H165.201Z" fill="#D73B46"/>
<path d="M184.872 123.579C184.647 123.948 184.285 124.213 183.865 124.314C183.444 124.416 183.001 124.347 182.632 124.122L163.617 112.518C163.434 112.407 163.275 112.261 163.149 112.088C163.023 111.915 162.932 111.718 162.882 111.51C162.831 111.302 162.822 111.086 162.855 110.875C162.889 110.663 162.963 110.46 163.074 110.277C163.186 110.095 163.332 109.936 163.505 109.809C163.678 109.683 163.874 109.592 164.082 109.542C164.29 109.492 164.506 109.483 164.717 109.516C164.929 109.549 165.132 109.623 165.314 109.735L184.329 121.338C184.698 121.563 184.963 121.926 185.065 122.346C185.166 122.766 185.097 123.21 184.872 123.579V123.579Z" fill="#393939"/>
<path d="M166.103 111.709C164.764 113.82 162.804 115.501 160.471 116.541C158.138 117.581 155.536 117.932 152.995 117.55C150.454 117.168 148.088 116.071 146.196 114.397C144.304 112.722 142.971 110.546 142.366 108.143C141.76 105.74 141.909 103.219 142.794 100.898C143.68 98.5766 145.261 96.5598 147.338 95.1025C149.416 93.6452 151.896 92.8129 154.465 92.7107C157.035 92.6085 159.578 93.2411 161.774 94.5285C164.715 96.2575 166.822 99.0373 167.634 102.258C168.446 105.479 167.895 108.878 166.103 111.709ZM146.677 100.318C145.673 101.901 145.179 103.735 145.259 105.587C145.339 107.44 145.988 109.228 147.125 110.726C148.262 112.224 149.835 113.364 151.646 114.002C153.457 114.64 155.424 114.748 157.299 114.311C159.173 113.875 160.871 112.914 162.178 111.55C163.484 110.185 164.34 108.479 164.638 106.647C164.936 104.815 164.662 102.94 163.851 101.257C163.039 99.5752 161.728 98.162 160.081 97.1964C157.872 95.9045 155.22 95.5076 152.708 96.0928C150.195 96.6781 148.026 98.1976 146.677 100.318V100.318Z" fill="#393939"/>
<path d="M207.631 107.275C211.315 107.275 214.302 104.287 214.302 100.601C214.302 96.9146 211.315 93.9265 207.631 93.9265C203.946 93.9265 200.959 96.9146 200.959 100.601C200.959 104.287 203.946 107.275 207.631 107.275Z" fill="#A0616A"/>
<path d="M207.2 138.016C207.071 137.615 207.028 137.192 207.075 136.773C207.121 136.354 207.256 135.95 207.469 135.587C207.683 135.224 207.97 134.91 208.313 134.666C208.657 134.422 209.047 134.253 209.46 134.171C209.591 134.145 209.723 134.129 209.857 134.122L216.884 122.839L210.465 116.734C210.22 116.5 210.023 116.221 209.886 115.911C209.75 115.601 209.676 115.268 209.669 114.929C209.661 114.591 209.722 114.254 209.845 113.939C209.969 113.624 210.154 113.336 210.389 113.093C210.625 112.85 210.906 112.656 211.217 112.522C211.527 112.388 211.862 112.317 212.2 112.313C212.539 112.309 212.874 112.372 213.188 112.499C213.502 112.626 213.788 112.813 214.029 113.051L222.892 121.794L222.91 121.815C223.184 122.233 223.316 122.727 223.287 123.226C223.258 123.724 223.069 124.2 222.748 124.583L212.902 136.233C212.931 136.326 212.955 136.421 212.975 136.517C213.057 136.93 213.051 137.356 212.958 137.767C212.864 138.178 212.685 138.564 212.432 138.9C212.178 139.237 211.857 139.516 211.488 139.72C211.12 139.923 210.712 140.046 210.293 140.081C210.208 140.089 210.123 140.093 210.039 140.093C209.408 140.09 208.793 139.888 208.283 139.515C207.773 139.142 207.394 138.618 207.2 138.016V138.016Z" fill="#A0616A"/>
<path d="M196.643 193.488L193.313 193.488L191.729 180.638L196.643 180.638L196.643 193.488Z" fill="#A0616A"/>
<path d="M197.492 196.717L186.754 196.717V196.581C186.754 196.032 186.862 195.488 187.073 194.981C187.283 194.474 187.59 194.013 187.978 193.624C188.367 193.236 188.827 192.928 189.334 192.718C189.841 192.508 190.385 192.4 190.934 192.4H190.934L197.492 192.4L197.492 196.717Z" fill="#2F2E41"/>
<path d="M229.742 188.882L226.881 190.586L218.948 180.356L223.171 177.841L229.742 188.882Z" fill="#A0616A"/>
<path d="M232.123 191.222L222.897 196.717L222.828 196.6C222.547 196.129 222.362 195.606 222.283 195.063C222.204 194.52 222.233 193.966 222.367 193.434C222.502 192.901 222.741 192.401 223.069 191.961C223.397 191.521 223.809 191.15 224.28 190.869L224.281 190.869L229.916 187.512L232.123 191.222Z" fill="#2F2E41"/>
<path d="M191.309 187.829C189.078 161.55 187.751 137.138 195.906 127.179L195.969 127.102L209.693 132.594L209.715 132.643C209.762 132.744 214.326 142.788 213.261 149.543L216.646 165.122L227.684 183.611C227.773 183.76 227.829 183.926 227.849 184.098C227.869 184.27 227.852 184.445 227.799 184.61C227.747 184.775 227.659 184.927 227.544 185.056C227.428 185.185 227.286 185.288 227.127 185.357L222.33 187.469C222.06 187.587 221.756 187.603 221.474 187.515C221.192 187.427 220.952 187.24 220.796 186.989L208.789 167.402L202.007 152.379C201.97 152.297 201.908 152.23 201.829 152.188C201.75 152.145 201.66 152.13 201.571 152.144C201.483 152.159 201.402 152.201 201.34 152.266C201.279 152.331 201.24 152.415 201.231 152.504L197.471 187.856C197.44 188.156 197.298 188.434 197.074 188.636C196.849 188.838 196.558 188.95 196.256 188.949H192.527C192.221 188.947 191.927 188.832 191.701 188.625C191.476 188.417 191.336 188.134 191.309 187.829V187.829Z" fill="#393939"/>
<path d="M195.952 127.387L195.886 127.356L195.876 127.284C195.363 123.694 195.97 119.706 197.68 115.43C198.522 113.337 200.088 111.616 202.093 110.581C204.097 109.547 206.406 109.267 208.599 109.793V109.793C209.863 110.104 211.048 110.675 212.079 111.468C213.111 112.262 213.966 113.261 214.592 114.403C215.209 115.532 215.585 116.778 215.696 118.061C215.807 119.344 215.65 120.636 215.236 121.855C213.081 128.159 210.286 134.058 210.258 134.117L210.199 134.24L195.952 127.387Z" fill="#D73B46"/>
<path d="M180.978 118.446C181.309 118.185 181.69 117.997 182.099 117.894C182.507 117.791 182.932 117.775 183.347 117.848C183.762 117.921 184.156 118.081 184.505 118.317C184.854 118.553 185.149 118.86 185.37 119.218C185.44 119.332 185.502 119.45 185.555 119.572L198.58 122.206L202.049 114.053C202.181 113.741 202.374 113.459 202.616 113.223C202.858 112.986 203.145 112.8 203.459 112.675C203.774 112.55 204.11 112.488 204.448 112.494C204.787 112.499 205.12 112.572 205.431 112.707C205.741 112.843 206.021 113.038 206.255 113.283C206.49 113.527 206.673 113.815 206.795 114.131C206.917 114.447 206.976 114.784 206.967 115.122C206.959 115.46 206.883 115.794 206.745 116.103L201.663 127.47L201.649 127.494C201.354 127.897 200.937 128.194 200.46 128.342C199.983 128.489 199.471 128.478 199.001 128.312L184.645 123.165C184.568 123.225 184.487 123.281 184.404 123.333C184.046 123.555 183.646 123.699 183.228 123.755C182.811 123.811 182.387 123.778 181.983 123.659C181.579 123.539 181.205 123.336 180.885 123.061C180.566 122.787 180.308 122.449 180.128 122.068C180.091 121.991 180.058 121.913 180.029 121.834C179.81 121.242 179.784 120.595 179.955 119.986C180.125 119.378 180.483 118.839 180.978 118.446V118.446Z" fill="#A0616A"/>
<path d="M231.732 107.748C231.089 106.609 230.153 105.566 228.915 105.145C227.317 104.601 225.586 105.18 223.943 105.566C222.676 105.864 221.354 106.046 220.077 105.795C218.801 105.544 217.57 104.801 216.989 103.636C216.135 101.924 216.855 99.8809 216.803 97.9673C216.776 96.9257 216.513 95.9036 216.034 94.9783C215.555 94.053 214.873 93.2485 214.038 92.6255C213.203 92.0025 212.237 91.5773 211.214 91.3818C210.191 91.1863 209.137 91.2258 208.132 91.4971C206.558 91.0428 205.133 91.0008 204.16 92.211C202.935 92.211 201.76 92.6977 200.894 93.564C200.029 94.4304 199.542 95.6054 199.542 96.8305H203.957C203.748 97.9569 203.987 99.1204 204.624 100.073C205.403 101.218 206.759 102.047 207.02 103.408C207.273 104.727 206.376 105.978 205.436 106.937C204.496 107.896 203.406 108.846 203.112 110.156C202.933 111.151 203.137 112.177 203.684 113.027C204.23 113.866 204.907 114.613 205.69 115.238C209.217 118.261 213.409 120.406 217.923 121.498C221.103 122.264 224.58 122.463 227.531 121.054C228.712 120.491 229.764 119.69 230.622 118.703C231.481 117.715 232.127 116.562 232.521 115.314C232.915 114.066 233.048 112.75 232.912 111.449C232.777 110.147 232.375 108.888 231.732 107.748V107.748Z" fill="#393939"/>
</svg>
