<svg width="51" height="45" viewBox="0 0 51 45" fill="none" xmlns="http://www.w3.org/2000/svg">
<path d="M4.5 10H45.5889C46.5642 10 47.3569 10.8014 47.3569 11.7874V41.9468C47.3569 42.9329 46.5642 43.7343 45.5889 43.7343H4.5C3.52466 43.7343 2.73193 42.9329 2.73193 41.9468V11.7874C2.73193 10.7972 3.52466 10 4.5 10Z" fill="#393939"/>
<path d="M12.75 16.9175H25.5V0H14.6592L12.75 16.9175Z" fill="#FFCA28"/>
<path d="M38.25 16.9175H25.5V0H36.3408L38.25 16.9175ZM47.1858 3.20559L47.2024 3.26434C47.1982 3.24336 47.1899 3.22657 47.1858 3.20559Z" fill="#D73B46"/>
<path d="M47.2024 3.26434L47.1858 3.20559C46.7832 1.33427 45.1438 0 43.2512 0H36.3408L38.25 16.9175H51L47.2024 3.26434Z" fill="#FFCA28"/>
<path d="M3.81421 3.20557L3.80176 3.26431C3.80176 3.24333 3.81006 3.22655 3.81421 3.20557Z" fill="#7BABF7"/>
<path d="M3.79761 3.26434L3.81421 3.20559C4.22095 1.33427 5.8562 0 7.75293 0H14.6592L12.75 16.9175H0L3.79761 3.26434Z" fill="#D73B46"/>
<path fill-rule="evenodd" clip-rule="evenodd" d="M12.7749 16.9133C12.7749 20.4714 9.92358 23.3539 6.40405 23.3539C2.88452 23.3539 0.0332031 20.4714 0.0332031 16.9133H12.7749Z" fill="#BF0711"/>
<path fill-rule="evenodd" clip-rule="evenodd" d="M25.5166 16.9133C25.5166 20.4714 22.6653 23.3539 19.1458 23.3539C15.6262 23.3539 12.7749 20.4714 12.7749 16.9133H25.5166Z" fill="#EBB100"/>
<path fill-rule="evenodd" clip-rule="evenodd" d="M38.2583 16.9133C38.2583 20.4714 35.407 23.3539 31.8875 23.3539C28.3679 23.3539 25.5166 20.4714 25.5166 16.9133H38.2583Z" fill="#BF0711"/>
<path fill-rule="evenodd" clip-rule="evenodd" d="M51 16.9133C51 20.4714 48.1487 23.3539 44.6291 23.3539C41.1096 23.3539 38.2583 20.4714 38.2583 16.9133H51Z" fill="#EBB100"/>
</svg>
